<svg xmlns="http://www.w3.org/2000/svg" xmlns:xlink="http://www.w3.org/1999/xlink" width="500" zoomAndPan="magnify" viewBox="0 0 375 374.999991" height="500" preserveAspectRatio="xMidYMid meet" version="1.0"><defs><g/><clipPath id="46e8668b68"><path d="M 83 0.921875 L 370.441406 0.921875 L 370.441406 69 L 83 69 Z M 83 0.921875 " clip-rule="nonzero"/></clipPath><clipPath id="38bfcf1811"><rect x="0" width="288" y="0" height="69"/></clipPath><clipPath id="f5e92cbf12"><rect x="0" width="257" y="0" height="24"/></clipPath><clipPath id="323eb24988"><path d="M 1.257812 39.027344 L 66 39.027344 L 66 83.804688 L 1.257812 83.804688 Z M 1.257812 39.027344 " clip-rule="nonzero"/></clipPath><clipPath id="e19846419e"><path d="M 49.269531 6.847656 L 82.851562 6.847656 L 82.851562 40.429688 L 49.269531 40.429688 Z M 49.269531 6.847656 " clip-rule="nonzero"/></clipPath><clipPath id="5f582a42f9"><path d="M 49.269531 19 L 71 19 L 71 40.429688 L 49.269531 40.429688 Z M 49.269531 19 " clip-rule="nonzero"/></clipPath><clipPath id="437db51a17"><path d="M 49.269531 32 L 58 32 L 58 40.429688 L 49.269531 40.429688 Z M 49.269531 32 " clip-rule="nonzero"/></clipPath><clipPath id="76109b4a07"><rect x="0" width="36" y="0" height="55"/></clipPath><clipPath id="4aeaf697e5"><rect x="0" width="371" y="0" height="85"/></clipPath></defs><g transform="matrix(1, 0, 0, 1, 3, 127)"><g clip-path="url(#4aeaf697e5)"><g clip-path="url(#46e8668b68)"><g transform="matrix(1, 0, 0, 1, 83, 0)"><g clip-path="url(#38bfcf1811)"><g fill="#2dc8f1" fill-opacity="1"><g transform="translate(2.699323, 55.197051)"><g><path d="M 10.109375 0 L 5.03125 0 L 5.03125 -39.859375 L 10.109375 -39.859375 Z M 10.109375 0 "/></g></g></g><g fill="#2dc8f1" fill-opacity="1"><g transform="translate(17.833776, 55.197051)"><g><path d="M 36.96875 -39.859375 L 42.6875 -39.859375 C 44.070312 -39.859375 44.765625 -39.144531 44.765625 -37.71875 L 46.4375 0 L 41.359375 0 L 39.921875 -35.640625 L 38.703125 -35.640625 L 29.8125 -6.234375 C 29.5 -5.078125 28.765625 -4.5 27.609375 -4.5 L 23.046875 -4.5 C 21.847656 -4.5 21.078125 -5.078125 20.734375 -6.234375 L 11.84375 -35.640625 L 10.6875 -35.640625 L 9.296875 0 L 4.21875 0 L 5.78125 -37.71875 C 5.851562 -39.144531 6.5625 -39.859375 7.90625 -39.859375 L 13.6875 -39.859375 C 14.769531 -39.859375 15.484375 -39.28125 15.828125 -38.125 L 23.28125 -13.8125 C 23.507812 -13.113281 23.804688 -12.082031 24.171875 -10.71875 C 24.535156 -9.351562 24.738281 -8.59375 24.78125 -8.4375 L 25.828125 -8.4375 C 25.941406 -8.851562 26.160156 -9.6875 26.484375 -10.9375 C 26.816406 -12.195312 27.097656 -13.191406 27.328125 -13.921875 L 34.78125 -38.125 C 35.082031 -39.28125 35.8125 -39.859375 36.96875 -39.859375 Z M 36.96875 -39.859375 "/></g></g></g><g fill="#2dc8f1" fill-opacity="1"><g transform="translate(68.493683, 55.197051)"><g><path d="M 29.234375 -4.21875 L 29.453125 -0.28125 C 25.910156 -0.0507812 20.210938 0.0625 12.359375 0.0625 C 10.015625 0.0625 8.15625 -0.5625 6.78125 -1.8125 C 5.414062 -3.070312 4.710938 -4.757812 4.671875 -6.875 L 4.671875 -32.984375 C 4.710938 -35.097656 5.414062 -36.78125 6.78125 -38.03125 C 8.15625 -39.289062 10.015625 -39.921875 12.359375 -39.921875 C 20.210938 -39.921875 25.910156 -39.800781 29.453125 -39.5625 L 29.234375 -35.578125 L 13.234375 -35.578125 C 10.921875 -35.578125 9.765625 -34.304688 9.765625 -31.765625 L 9.765625 -23.109375 L 26.984375 -23.109375 L 26.984375 -19 L 9.765625 -19 L 9.765625 -8.09375 C 9.765625 -5.507812 10.921875 -4.21875 13.234375 -4.21875 Z M 29.234375 -4.21875 "/></g></g></g><g fill="#2dc8f1" fill-opacity="1"><g transform="translate(100.842107, 55.197051)"><g><path d="M 33.09375 0 L 27.671875 0 L 24.140625 -12.484375 C 23.640625 -13.984375 22.96875 -15.050781 22.125 -15.6875 C 21.28125 -16.320312 20.179688 -16.640625 18.828125 -16.640625 C 17.484375 -16.640625 15.835938 -16.644531 13.890625 -16.65625 C 11.941406 -16.675781 10.660156 -16.6875 10.046875 -16.6875 L 10.046875 0 L 5.03125 0 L 5.03125 -39.859375 C 8.257812 -40.203125 12.84375 -40.375 18.78125 -40.375 C 23.507812 -40.375 26.835938 -39.554688 28.765625 -37.921875 C 30.691406 -36.285156 31.65625 -33.273438 31.65625 -28.890625 C 31.65625 -25.609375 31.085938 -23.160156 29.953125 -21.546875 C 28.816406 -19.929688 26.9375 -18.945312 24.3125 -18.59375 L 24.3125 -18.3125 C 25.394531 -18.039062 26.378906 -17.414062 27.265625 -16.4375 C 28.148438 -15.457031 28.804688 -14.175781 29.234375 -12.59375 Z M 10.046875 -21.03125 L 18.65625 -21.03125 C 21.65625 -21.0625 23.710938 -21.597656 24.828125 -22.640625 C 25.953125 -23.679688 26.515625 -25.664062 26.515625 -28.59375 C 26.515625 -31.476562 25.953125 -33.429688 24.828125 -34.453125 C 23.710938 -35.472656 21.65625 -35.984375 18.65625 -35.984375 C 14.414062 -35.984375 11.546875 -35.96875 10.046875 -35.9375 Z M 10.046875 -21.03125 "/></g></g></g><g fill="#2dc8f1" fill-opacity="1"><g transform="translate(136.540885, 55.197051)"><g><path d="M 19.296875 -16.875 L 11.03125 -18.953125 C 8.21875 -19.640625 6.203125 -20.878906 4.984375 -22.671875 C 3.773438 -24.460938 3.171875 -26.914062 3.171875 -30.03125 C 3.171875 -32.34375 3.410156 -34.203125 3.890625 -35.609375 C 4.378906 -37.015625 5.207031 -38.070312 6.375 -38.78125 C 7.550781 -39.5 8.863281 -39.972656 10.3125 -40.203125 C 11.757812 -40.429688 13.691406 -40.546875 16.109375 -40.546875 C 20.804688 -40.472656 24.753906 -40.085938 27.953125 -39.390625 L 27.609375 -35.703125 C 23.878906 -35.890625 20.125 -35.984375 16.34375 -35.984375 C 14.65625 -35.984375 13.40625 -35.941406 12.59375 -35.859375 C 11.78125 -35.785156 10.988281 -35.554688 10.21875 -35.171875 C 9.445312 -34.796875 8.9375 -34.191406 8.6875 -33.359375 C 8.4375 -32.535156 8.3125 -31.390625 8.3125 -29.921875 C 8.3125 -27.804688 8.6875 -26.304688 9.4375 -25.421875 C 10.195312 -24.535156 11.5 -23.859375 13.34375 -23.390625 L 21.4375 -21.375 C 24.394531 -20.644531 26.46875 -19.394531 27.65625 -17.625 C 28.851562 -15.851562 29.453125 -13.367188 29.453125 -10.171875 C 29.453125 -5.773438 28.460938 -2.863281 26.484375 -1.4375 C 24.503906 -0.0195312 21.046875 0.6875 16.109375 0.6875 C 11.910156 0.6875 7.789062 0.320312 3.75 -0.40625 L 4.09375 -4.15625 C 10.570312 -3.925781 14.640625 -3.832031 16.296875 -3.875 C 19.453125 -3.875 21.578125 -4.273438 22.671875 -5.078125 C 23.765625 -5.890625 24.3125 -7.625 24.3125 -10.28125 C 24.3125 -12.476562 23.9375 -14.007812 23.1875 -14.875 C 22.4375 -15.738281 21.140625 -16.40625 19.296875 -16.875 Z M 19.296875 -16.875 "/></g></g></g><g fill="#2dc8f1" fill-opacity="1"><g transform="translate(168.947084, 55.197051)"><g><path d="M 11.15625 -44.1875 L 8.84375 -44.1875 C 8.601562 -46.425781 8.914062 -48.117188 9.78125 -49.265625 C 10.65625 -50.421875 11.84375 -50.941406 13.34375 -50.828125 C 14.570312 -50.710938 16.0625 -50.171875 17.8125 -49.203125 C 19.570312 -48.242188 20.96875 -47.707031 22 -47.59375 C 23.039062 -47.476562 23.765625 -47.648438 24.171875 -48.109375 C 24.578125 -48.578125 24.78125 -49.390625 24.78125 -50.546875 L 27.09375 -50.546875 C 27.320312 -48.390625 27.007812 -46.742188 26.15625 -45.609375 C 25.3125 -44.472656 24.125 -43.960938 22.59375 -44.078125 C 21.164062 -44.191406 19.554688 -44.738281 17.765625 -45.71875 C 15.972656 -46.695312 14.691406 -47.25 13.921875 -47.375 C 12.835938 -47.488281 12.101562 -47.296875 11.71875 -46.796875 C 11.34375 -46.296875 11.15625 -45.425781 11.15625 -44.1875 Z M 26.171875 -12.484375 L 9.765625 -12.484375 L 5.828125 0 L 0.578125 0 L 13.40625 -38.46875 C 13.632812 -39.394531 14.269531 -39.859375 15.3125 -39.859375 L 20.625 -39.859375 C 21.664062 -39.859375 22.300781 -39.394531 22.53125 -38.46875 L 35.359375 0 L 30.09375 0 Z M 24.78125 -16.875 L 19.75 -32.703125 C 19.40625 -33.703125 19.082031 -34.78125 18.78125 -35.9375 L 17.15625 -35.9375 L 16.171875 -32.703125 L 11.15625 -16.875 Z M 24.78125 -16.875 "/></g></g></g><g fill="#2dc8f1" fill-opacity="1"><g transform="translate(204.645821, 55.197051)"><g><path d="M 7.015625 -36.078125 C 9.347656 -39.097656 13.441406 -40.609375 19.296875 -40.609375 C 25.148438 -40.609375 29.226562 -39.097656 31.53125 -36.078125 C 33.84375 -33.054688 35 -27.671875 35 -19.921875 C 35 -12.179688 33.84375 -6.800781 31.53125 -3.78125 C 29.226562 -0.757812 25.148438 0.75 19.296875 0.75 C 13.441406 0.75 9.347656 -0.757812 7.015625 -3.78125 C 4.691406 -6.800781 3.53125 -12.179688 3.53125 -19.921875 C 3.53125 -27.671875 4.691406 -33.054688 7.015625 -36.078125 Z M 27.4375 -32.546875 C 25.9375 -34.878906 23.222656 -36.046875 19.296875 -36.046875 C 15.367188 -36.046875 12.648438 -34.878906 11.140625 -32.546875 C 9.640625 -30.222656 8.890625 -26.015625 8.890625 -19.921875 C 8.890625 -13.835938 9.640625 -9.628906 11.140625 -7.296875 C 12.648438 -4.972656 15.367188 -3.8125 19.296875 -3.8125 C 23.222656 -3.8125 25.9375 -4.972656 27.4375 -7.296875 C 28.9375 -9.628906 29.6875 -13.835938 29.6875 -19.921875 C 29.6875 -26.015625 28.9375 -30.222656 27.4375 -32.546875 Z M 27.4375 -32.546875 "/></g></g></g><g fill="#2dc8f1" fill-opacity="1"><g transform="translate(243.232839, 55.197051)"><g/></g></g><g fill="#2dc8f1" fill-opacity="1"><g transform="translate(256.114451, 55.197051)"><g><path d="M 10.109375 0 L 5.03125 0 L 5.03125 -39.859375 L 10.109375 -39.859375 Z M 10.109375 0 "/></g></g></g><g fill="#2dc8f1" fill-opacity="1"><g transform="translate(271.248904, 55.197051)"><g><path d="M 10.109375 0 L 5.03125 0 L 5.03125 -39.859375 L 10.109375 -39.859375 Z M 10.109375 0 "/></g></g></g></g></g></g><g transform="matrix(1, 0, 0, 1, 99, 60)"><g clip-path="url(#f5e92cbf12)"><g fill="#ffffff" fill-opacity="1"><g transform="translate(1.121832, 19.690934)"><g><path d="M 8.671875 -11.6875 L 3.15625 -11.6875 L 2.96875 -8.125 L 4.375 -8 C 6.125 -7.875 7.351562 -7.515625 8.0625 -6.921875 C 8.78125 -6.328125 9.132812 -5.332031 9.125 -3.9375 C 9.125 -3.476562 9.09375 -3.0625 9.03125 -2.6875 C 8.96875 -2.3125 8.84375 -1.9375 8.65625 -1.5625 C 8.476562 -1.195312 8.234375 -0.882812 7.921875 -0.625 C 7.617188 -0.375 7.210938 -0.164062 6.703125 0 C 6.191406 0.15625 5.585938 0.234375 4.890625 0.234375 C 3.671875 0.234375 2.367188 0.0703125 0.984375 -0.25 L 1.171875 -1.59375 C 2.453125 -1.363281 3.5625 -1.25 4.5 -1.25 C 5.664062 -1.25 6.445312 -1.457031 6.84375 -1.875 C 7.25 -2.300781 7.460938 -2.988281 7.484375 -3.9375 C 7.503906 -4.34375 7.484375 -4.6875 7.421875 -4.96875 C 7.367188 -5.257812 7.25 -5.5 7.0625 -5.6875 C 6.875 -5.882812 6.695312 -6.035156 6.53125 -6.140625 C 6.363281 -6.253906 6.066406 -6.347656 5.640625 -6.421875 C 5.210938 -6.503906 4.832031 -6.5625 4.5 -6.59375 C 4.175781 -6.625 3.675781 -6.65625 3 -6.6875 L 2.125 -6.75 C 1.9375 -6.769531 1.78125 -6.847656 1.65625 -6.984375 C 1.539062 -7.117188 1.488281 -7.285156 1.5 -7.484375 L 1.8125 -13.125 L 8.75 -13.125 Z M 8.671875 -11.6875 "/></g></g></g><g fill="#ffffff" fill-opacity="1"><g transform="translate(11.311118, 19.690934)"><g><path d="M 9.4375 0 L 9.234375 -1.390625 C 8.117188 -0.296875 6.816406 0.25 5.328125 0.25 C 3.867188 0.25 2.8125 -0.296875 2.15625 -1.390625 C 1.5 -2.484375 1.171875 -4.21875 1.171875 -6.59375 C 1.171875 -9.164062 1.570312 -10.9375 2.375 -11.90625 C 3.175781 -12.882812 4.601562 -13.375 6.65625 -13.375 C 8.039062 -13.375 9.257812 -13.238281 10.3125 -12.96875 L 10.140625 -11.71875 C 9.066406 -11.8125 7.9375 -11.859375 6.75 -11.859375 C 5.75 -11.859375 4.988281 -11.726562 4.46875 -11.46875 C 3.957031 -11.21875 3.578125 -10.703125 3.328125 -9.921875 C 3.078125 -9.148438 2.953125 -8.003906 2.953125 -6.484375 C 2.953125 -4.546875 3.160156 -3.179688 3.578125 -2.390625 C 3.992188 -1.609375 4.726562 -1.21875 5.78125 -1.21875 C 6.769531 -1.21875 7.847656 -1.640625 9.015625 -2.484375 L 9.015625 -7.59375 L 10.65625 -7.59375 L 10.65625 0 Z M 9.4375 0 "/></g></g></g><g fill="#ffffff" fill-opacity="1"><g transform="translate(23.249321, 19.690934)"><g/></g></g><g fill="#ffffff" fill-opacity="1"><g transform="translate(27.032104, 19.690934)"><g><path d="M 8.609375 -4.109375 L 3.21875 -4.109375 L 1.921875 0 L 0.1875 0 L 4.40625 -12.671875 C 4.488281 -12.972656 4.703125 -13.125 5.046875 -13.125 L 6.78125 -13.125 C 7.125 -13.125 7.335938 -12.972656 7.421875 -12.671875 L 11.640625 0 L 9.90625 0 Z M 8.15625 -5.546875 L 6.5 -10.765625 C 6.382812 -11.085938 6.28125 -11.441406 6.1875 -11.828125 L 5.640625 -11.828125 L 5.328125 -10.765625 L 3.671875 -5.546875 Z M 8.15625 -5.546875 "/></g></g></g><g fill="#ffffff" fill-opacity="1"><g transform="translate(38.856249, 19.690934)"><g><path d="M 1.65625 0 L 1.65625 -13.125 C 2.71875 -13.238281 4.21875 -13.296875 6.15625 -13.296875 C 7.757812 -13.296875 8.863281 -13.003906 9.46875 -12.421875 C 10.070312 -11.847656 10.375 -10.769531 10.375 -9.1875 C 10.375 -7.601562 10.078125 -6.519531 9.484375 -5.9375 C 8.898438 -5.363281 7.851562 -5.078125 6.34375 -5.078125 C 5.3125 -5.078125 4.304688 -5.132812 3.328125 -5.25 L 3.328125 0 Z M 3.328125 -6.515625 L 6.140625 -6.515625 C 7.117188 -6.535156 7.785156 -6.722656 8.140625 -7.078125 C 8.503906 -7.441406 8.6875 -8.144531 8.6875 -9.1875 C 8.6875 -10.226562 8.503906 -10.929688 8.140625 -11.296875 C 7.773438 -11.660156 7.109375 -11.84375 6.140625 -11.84375 C 4.753906 -11.84375 3.816406 -11.835938 3.328125 -11.828125 Z M 3.328125 -6.515625 "/></g></g></g><g fill="#ffffff" fill-opacity="1"><g transform="translate(50.072071, 19.690934)"><g><path d="M 3.265625 -13.125 L 3.265625 -2.65625 C 3.265625 -1.820312 3.691406 -1.40625 4.546875 -1.40625 L 9.28125 -1.40625 L 9.359375 -0.109375 C 8.253906 -0.0234375 6.5625 0.015625 4.28125 0.015625 C 2.5 0.015625 1.609375 -0.804688 1.609375 -2.453125 L 1.609375 -13.125 Z M 3.265625 -13.125 "/></g></g></g><g fill="#ffffff" fill-opacity="1"><g transform="translate(59.843145, 19.690934)"><g><path d="M 3.328125 0 L 1.65625 0 L 1.65625 -13.125 L 3.328125 -13.125 Z M 3.328125 0 "/></g></g></g><g fill="#ffffff" fill-opacity="1"><g transform="translate(64.82373, 19.690934)"><g><path d="M 9.984375 -1.46875 L 10.15625 -0.203125 C 9.101562 0.0859375 7.820312 0.234375 6.3125 0.234375 C 4.425781 0.234375 3.09375 -0.269531 2.3125 -1.28125 C 1.539062 -2.300781 1.15625 -4.0625 1.15625 -6.5625 C 1.15625 -9.0625 1.539062 -10.816406 2.3125 -11.828125 C 3.09375 -12.835938 4.425781 -13.34375 6.3125 -13.34375 C 7.664062 -13.34375 8.859375 -13.21875 9.890625 -12.96875 L 9.71875 -11.6875 C 8.570312 -11.800781 7.4375 -11.859375 6.3125 -11.859375 C 5.03125 -11.859375 4.144531 -11.472656 3.65625 -10.703125 C 3.164062 -9.941406 2.921875 -8.5625 2.921875 -6.5625 C 2.921875 -4.5625 3.164062 -3.175781 3.65625 -2.40625 C 4.144531 -1.632812 5.03125 -1.25 6.3125 -1.25 C 7.78125 -1.25 9.003906 -1.320312 9.984375 -1.46875 Z M 9.984375 -1.46875 "/></g></g></g><g fill="#ffffff" fill-opacity="1"><g transform="translate(75.659359, 19.690934)"><g><path d="M 8.609375 -4.109375 L 3.21875 -4.109375 L 1.921875 0 L 0.1875 0 L 4.40625 -12.671875 C 4.488281 -12.972656 4.703125 -13.125 5.046875 -13.125 L 6.78125 -13.125 C 7.125 -13.125 7.335938 -12.972656 7.421875 -12.671875 L 11.640625 0 L 9.90625 0 Z M 8.15625 -5.546875 L 6.5 -10.765625 C 6.382812 -11.085938 6.28125 -11.441406 6.1875 -11.828125 L 5.640625 -11.828125 L 5.328125 -10.765625 L 3.671875 -5.546875 Z M 8.15625 -5.546875 "/></g></g></g><g fill="#ffffff" fill-opacity="1"><g transform="translate(87.483504, 19.690934)"><g><path d="M 1.65625 0 L 1.65625 -13.125 C 3.300781 -13.238281 4.859375 -13.296875 6.328125 -13.296875 C 8.222656 -13.296875 9.550781 -12.800781 10.3125 -11.8125 C 11.070312 -10.832031 11.453125 -9.082031 11.453125 -6.5625 C 11.453125 -4.039062 11.070312 -2.285156 10.3125 -1.296875 C 9.550781 -0.316406 8.222656 0.171875 6.328125 0.171875 C 4.859375 0.171875 3.300781 0.113281 1.65625 0 Z M 3.328125 -11.8125 L 3.328125 -1.328125 C 4.472656 -1.304688 5.472656 -1.296875 6.328125 -1.296875 C 7.585938 -1.296875 8.460938 -1.675781 8.953125 -2.4375 C 9.453125 -3.207031 9.703125 -4.582031 9.703125 -6.5625 C 9.703125 -8.539062 9.453125 -9.914062 8.953125 -10.6875 C 8.460938 -11.457031 7.585938 -11.84375 6.328125 -11.84375 C 5.515625 -11.84375 4.515625 -11.832031 3.328125 -11.8125 Z M 3.328125 -11.8125 "/></g></g></g><g fill="#ffffff" fill-opacity="1"><g transform="translate(100.029984, 19.690934)"><g><path d="M 8.609375 -4.109375 L 3.21875 -4.109375 L 1.921875 0 L 0.1875 0 L 4.40625 -12.671875 C 4.488281 -12.972656 4.703125 -13.125 5.046875 -13.125 L 6.78125 -13.125 C 7.125 -13.125 7.335938 -12.972656 7.421875 -12.671875 L 11.640625 0 L 9.90625 0 Z M 8.15625 -5.546875 L 6.5 -10.765625 C 6.382812 -11.085938 6.28125 -11.441406 6.1875 -11.828125 L 5.640625 -11.828125 L 5.328125 -10.765625 L 3.671875 -5.546875 Z M 8.15625 -5.546875 "/></g></g></g><g fill="#ffffff" fill-opacity="1"><g transform="translate(111.397711, 19.690934)"><g/></g></g><g fill="#ffffff" fill-opacity="1"><g transform="translate(115.180494, 19.690934)"><g><path d="M 8.609375 -4.109375 L 3.21875 -4.109375 L 1.921875 0 L 0.1875 0 L 4.40625 -12.671875 C 4.488281 -12.972656 4.703125 -13.125 5.046875 -13.125 L 6.78125 -13.125 C 7.125 -13.125 7.335938 -12.972656 7.421875 -12.671875 L 11.640625 0 L 9.90625 0 Z M 8.15625 -5.546875 L 6.5 -10.765625 C 6.382812 -11.085938 6.28125 -11.441406 6.1875 -11.828125 L 5.640625 -11.828125 L 5.328125 -10.765625 L 3.671875 -5.546875 Z M 8.15625 -5.546875 "/></g></g></g><g fill="#ffffff" fill-opacity="1"><g transform="translate(126.548221, 19.690934)"><g/></g></g><g fill="#ffffff" fill-opacity="1"><g transform="translate(130.787423, 19.690934)"><g><path d="M 3.328125 0 L 1.65625 0 L 1.65625 -13.125 L 3.328125 -13.125 Z M 3.328125 0 "/></g></g></g><g fill="#ffffff" fill-opacity="1"><g transform="translate(135.768008, 19.690934)"><g><path d="M 11.75 -13.125 L 11.75 -0.671875 C 11.75 -0.222656 11.535156 0 11.109375 0 L 9.46875 0 C 9.125 0 8.878906 -0.175781 8.734375 -0.53125 L 4.296875 -9.828125 C 3.867188 -10.765625 3.625 -11.34375 3.5625 -11.5625 L 3.25 -11.5625 C 3.300781 -11.050781 3.328125 -10.472656 3.328125 -9.828125 L 3.328125 0 L 1.65625 0 L 1.65625 -12.453125 C 1.65625 -12.898438 1.875 -13.125 2.3125 -13.125 L 3.890625 -13.125 C 4.234375 -13.125 4.484375 -12.945312 4.640625 -12.59375 L 8.9375 -3.515625 C 9.25 -2.898438 9.546875 -2.265625 9.828125 -1.609375 L 10.15625 -1.609375 C 10.113281 -2.296875 10.09375 -2.960938 10.09375 -3.609375 L 10.09375 -13.125 Z M 11.75 -13.125 "/></g></g></g><g fill="#ffffff" fill-opacity="1"><g transform="translate(149.169976, 19.690934)"><g><path d="M 1.65625 0 L 1.65625 -13.125 C 3.300781 -13.238281 4.859375 -13.296875 6.328125 -13.296875 C 8.222656 -13.296875 9.550781 -12.800781 10.3125 -11.8125 C 11.070312 -10.832031 11.453125 -9.082031 11.453125 -6.5625 C 11.453125 -4.039062 11.070312 -2.285156 10.3125 -1.296875 C 9.550781 -0.316406 8.222656 0.171875 6.328125 0.171875 C 4.859375 0.171875 3.300781 0.113281 1.65625 0 Z M 3.328125 -11.8125 L 3.328125 -1.328125 C 4.472656 -1.304688 5.472656 -1.296875 6.328125 -1.296875 C 7.585938 -1.296875 8.460938 -1.675781 8.953125 -2.4375 C 9.453125 -3.207031 9.703125 -4.582031 9.703125 -6.5625 C 9.703125 -8.539062 9.453125 -9.914062 8.953125 -10.6875 C 8.460938 -11.457031 7.585938 -11.84375 6.328125 -11.84375 C 5.515625 -11.84375 4.515625 -11.832031 3.328125 -11.8125 Z M 3.328125 -11.8125 "/></g></g></g><g fill="#ffffff" fill-opacity="1"><g transform="translate(161.792525, 19.690934)"><g><path d="M 9.3125 -16.125 L 5.671875 -13.84375 L 5.109375 -14.578125 L 8.390625 -17.375 Z M 11.109375 -13.125 L 11.109375 -5.015625 C 11.109375 -3.109375 10.75 -1.753906 10.03125 -0.953125 C 9.320312 -0.148438 8.113281 0.25 6.40625 0.25 C 4.632812 0.25 3.382812 -0.148438 2.65625 -0.953125 C 1.925781 -1.753906 1.5625 -3.109375 1.5625 -5.015625 L 1.5625 -13.125 L 3.234375 -13.125 L 3.234375 -5.015625 C 3.234375 -3.609375 3.460938 -2.628906 3.921875 -2.078125 C 4.378906 -1.523438 5.179688 -1.25 6.328125 -1.25 C 7.472656 -1.25 8.273438 -1.523438 8.734375 -2.078125 C 9.203125 -2.628906 9.4375 -3.609375 9.4375 -5.015625 L 9.4375 -13.125 Z M 11.109375 -13.125 "/></g></g></g><g fill="#ffffff" fill-opacity="1"><g transform="translate(174.453094, 19.690934)"><g><path d="M 6.34375 -5.546875 L 3.625 -6.234375 C 2.707031 -6.460938 2.046875 -6.867188 1.640625 -7.453125 C 1.242188 -8.046875 1.046875 -8.859375 1.046875 -9.890625 C 1.046875 -10.648438 1.125 -11.257812 1.28125 -11.71875 C 1.4375 -12.1875 1.707031 -12.535156 2.09375 -12.765625 C 2.488281 -13.003906 2.921875 -13.160156 3.390625 -13.234375 C 3.867188 -13.304688 4.507812 -13.34375 5.3125 -13.34375 C 6.851562 -13.320312 8.148438 -13.195312 9.203125 -12.96875 L 9.09375 -11.75 C 7.863281 -11.8125 6.625 -11.84375 5.375 -11.84375 C 4.820312 -11.84375 4.410156 -11.828125 4.140625 -11.796875 C 3.878906 -11.773438 3.617188 -11.703125 3.359375 -11.578125 C 3.109375 -11.453125 2.941406 -11.253906 2.859375 -10.984375 C 2.773438 -10.710938 2.734375 -10.332031 2.734375 -9.84375 C 2.734375 -9.144531 2.859375 -8.648438 3.109375 -8.359375 C 3.359375 -8.066406 3.785156 -7.847656 4.390625 -7.703125 L 7.0625 -7.03125 C 8.03125 -6.789062 8.710938 -6.378906 9.109375 -5.796875 C 9.503906 -5.210938 9.703125 -4.394531 9.703125 -3.34375 C 9.703125 -1.894531 9.375 -0.9375 8.71875 -0.46875 C 8.0625 0 6.925781 0.234375 5.3125 0.234375 C 3.925781 0.234375 2.566406 0.109375 1.234375 -0.140625 L 1.34375 -1.375 C 3.476562 -1.289062 4.816406 -1.257812 5.359375 -1.28125 C 6.398438 -1.28125 7.097656 -1.410156 7.453125 -1.671875 C 7.816406 -1.941406 8 -2.515625 8 -3.390625 C 8 -4.109375 7.875 -4.609375 7.625 -4.890625 C 7.382812 -5.179688 6.957031 -5.398438 6.34375 -5.546875 Z M 6.34375 -5.546875 "/></g></g></g><g fill="#ffffff" fill-opacity="1"><g transform="translate(185.117629, 19.690934)"><g><path d="M 10.59375 -11.640625 L 6.34375 -11.640625 L 6.34375 0 L 4.671875 0 L 4.671875 -11.640625 L 0.453125 -11.640625 L 0.453125 -13.125 L 10.59375 -13.125 Z M 10.59375 -11.640625 "/></g></g></g><g fill="#ffffff" fill-opacity="1"><g transform="translate(196.162371, 19.690934)"><g><path d="M 10.890625 0 L 9.109375 0 L 7.953125 -4.109375 C 7.785156 -4.597656 7.5625 -4.945312 7.28125 -5.15625 C 7 -5.363281 6.632812 -5.46875 6.1875 -5.46875 C 5.75 -5.46875 5.207031 -5.472656 4.5625 -5.484375 C 3.925781 -5.492188 3.507812 -5.5 3.3125 -5.5 L 3.3125 0 L 1.65625 0 L 1.65625 -13.125 C 2.71875 -13.238281 4.226562 -13.296875 6.1875 -13.296875 C 7.738281 -13.296875 8.832031 -13.023438 9.46875 -12.484375 C 10.101562 -11.941406 10.421875 -10.945312 10.421875 -9.5 C 10.421875 -8.425781 10.234375 -7.625 9.859375 -7.09375 C 9.484375 -6.5625 8.863281 -6.238281 8 -6.125 L 8 -6.03125 C 8.351562 -5.9375 8.675781 -5.726562 8.96875 -5.40625 C 9.257812 -5.082031 9.476562 -4.660156 9.625 -4.140625 Z M 3.3125 -6.921875 L 6.140625 -6.921875 C 7.128906 -6.929688 7.804688 -7.109375 8.171875 -7.453125 C 8.546875 -7.796875 8.734375 -8.445312 8.734375 -9.40625 C 8.734375 -10.363281 8.546875 -11.007812 8.171875 -11.34375 C 7.804688 -11.675781 7.128906 -11.84375 6.140625 -11.84375 C 4.742188 -11.84375 3.800781 -11.835938 3.3125 -11.828125 Z M 3.3125 -6.921875 "/></g></g></g><g fill="#ffffff" fill-opacity="1"><g transform="translate(207.910478, 19.690934)"><g><path d="M 3.328125 0 L 1.65625 0 L 1.65625 -13.125 L 3.328125 -13.125 Z M 3.328125 0 "/></g></g></g><g fill="#ffffff" fill-opacity="1"><g transform="translate(212.891063, 19.690934)"><g><path d="M 8.609375 -4.109375 L 3.21875 -4.109375 L 1.921875 0 L 0.1875 0 L 4.40625 -12.671875 C 4.488281 -12.972656 4.703125 -13.125 5.046875 -13.125 L 6.78125 -13.125 C 7.125 -13.125 7.335938 -12.972656 7.421875 -12.671875 L 11.640625 0 L 9.90625 0 Z M 8.15625 -5.546875 L 6.5 -10.765625 C 6.382812 -11.085938 6.28125 -11.441406 6.1875 -11.828125 L 5.640625 -11.828125 L 5.328125 -10.765625 L 3.671875 -5.546875 Z M 8.15625 -5.546875 "/></g></g></g><g fill="#ffffff" fill-opacity="1"><g transform="translate(224.25879, 19.690934)"><g/></g></g><g fill="#ffffff" fill-opacity="1"><g transform="translate(228.497992, 19.690934)"><g><path d="M 10.859375 -3.390625 L 9.171875 -3.21875 L 9.171875 0 L 7.59375 0 L 7.59375 -3.21875 L 2.15625 -3.21875 C 1.613281 -3.21875 1.210938 -3.429688 0.953125 -3.859375 C 0.703125 -4.285156 0.679688 -4.75 0.890625 -5.25 L 4.625 -13.125 L 6.28125 -13.125 L 2.609375 -5.359375 C 2.503906 -5.109375 2.5 -4.914062 2.59375 -4.78125 C 2.6875 -4.644531 2.847656 -4.578125 3.078125 -4.578125 L 7.59375 -4.578125 L 7.59375 -8.4375 L 7.875 -10.609375 L 9.171875 -10.609375 L 9.171875 -4.578125 L 10.859375 -4.578125 Z M 10.859375 -3.390625 "/></g></g></g><g fill="#ffffff" fill-opacity="1"><g transform="translate(240.189062, 19.690934)"><g><path d="M 1.90625 -2.25 L 2.4375 -2.25 C 2.664062 -2.25 2.820312 -2.203125 2.90625 -2.109375 C 3 -2.023438 3.046875 -1.867188 3.046875 -1.640625 L 3.046875 -0.609375 C 3.046875 -0.378906 3 -0.21875 2.90625 -0.125 C 2.820312 -0.0390625 2.664062 0 2.4375 0 L 1.90625 0 C 1.6875 0 1.53125 -0.0390625 1.4375 -0.125 C 1.34375 -0.21875 1.296875 -0.378906 1.296875 -0.609375 L 1.296875 -1.640625 C 1.296875 -1.867188 1.34375 -2.023438 1.4375 -2.109375 C 1.53125 -2.203125 1.6875 -2.25 1.90625 -2.25 Z M 1.90625 -2.25 "/></g></g></g><g fill="#ffffff" fill-opacity="1"><g transform="translate(244.542321, 19.690934)"><g><path d="M 2.21875 -11.796875 C 2.894531 -12.847656 4.0625 -13.375 5.71875 -13.375 C 7.382812 -13.375 8.554688 -12.847656 9.234375 -11.796875 C 9.910156 -10.742188 10.25 -9 10.25 -6.5625 C 10.25 -4.125 9.910156 -2.378906 9.234375 -1.328125 C 8.554688 -0.273438 7.382812 0.25 5.71875 0.25 C 4.0625 0.25 2.894531 -0.273438 2.21875 -1.328125 C 1.550781 -2.378906 1.21875 -4.125 1.21875 -6.5625 C 1.21875 -9 1.550781 -10.742188 2.21875 -11.796875 Z M 7.96875 -10.703125 C 7.550781 -11.503906 6.800781 -11.90625 5.71875 -11.90625 C 4.644531 -11.90625 3.898438 -11.503906 3.484375 -10.703125 C 3.066406 -9.898438 2.859375 -8.515625 2.859375 -6.546875 C 2.859375 -4.585938 3.066406 -3.207031 3.484375 -2.40625 C 3.898438 -1.613281 4.644531 -1.21875 5.71875 -1.21875 C 6.800781 -1.21875 7.550781 -1.613281 7.96875 -2.40625 C 8.394531 -3.207031 8.609375 -4.585938 8.609375 -6.546875 C 8.609375 -8.515625 8.394531 -9.898438 7.96875 -10.703125 Z M 7.96875 -10.703125 "/></g></g></g></g></g><g clip-path="url(#323eb24988)"><path fill="#b732cc" d="M 60.398438 77.980469 L 58.28125 39.070312 L 49.492188 39.070312 L 47.375 77.980469 L 46.511719 77.980469 L 46.511719 47.621094 L 33.253906 58.449219 L 33.253906 47.621094 L 19.996094 58.449219 L 19.996094 47.621094 L 6.738281 58.449219 L 6.738281 77.980469 L 1.265625 77.980469 L 1.265625 83.984375 L 65.871094 83.984375 L 65.871094 77.980469 C 65.871094 77.980469 60.398438 77.980469 60.398438 77.980469 Z M 16.625 72.097656 L 12.445312 72.097656 L 12.445312 65.09375 L 16.625 65.09375 Z M 25.097656 72.097656 L 20.917969 72.097656 L 20.917969 65.09375 L 25.097656 65.09375 Z M 33.570312 72.097656 L 29.390625 72.097656 L 29.390625 65.09375 L 33.570312 65.09375 Z M 33.570312 72.097656 " fill-opacity="1" fill-rule="nonzero"/></g><g clip-path="url(#e19846419e)"><path fill="#b732cc" d="M 77.011719 40.175781 L 83.125 40.175781 C 82.960938 21.738281 67.972656 6.84375 49.496094 6.84375 C 49.421875 6.84375 49.351562 6.847656 49.277344 6.847656 L 49.277344 12.960938 C 49.351562 12.960938 49.421875 12.949219 49.496094 12.949219 C 64.59375 12.949219 76.851562 25.113281 77.011719 40.175781 " fill-opacity="1" fill-rule="nonzero"/></g><g clip-path="url(#5f582a42f9)"><path fill="#b732cc" d="M 64.128906 40.175781 L 70.636719 40.175781 C 70.476562 28.632812 61.082031 19.320312 49.496094 19.320312 C 49.421875 19.320312 49.351562 19.328125 49.277344 19.328125 L 49.277344 25.839844 C 49.351562 25.839844 49.421875 25.828125 49.496094 25.828125 C 57.484375 25.828125 63.96875 32.226562 64.128906 40.175781 " fill-opacity="1" fill-rule="nonzero"/></g><g clip-path="url(#437db51a17)"><path fill="#b732cc" d="M 57.617188 40.175781 C 57.457031 35.824219 53.886719 32.339844 49.496094 32.339844 C 49.421875 32.339844 49.351562 32.347656 49.277344 32.351562 L 49.277344 40.175781 L 57.617188 40.175781 " fill-opacity="1" fill-rule="nonzero"/></g><g transform="matrix(1, 0, 0, 1, 9, 1)"><g clip-path="url(#76109b4a07)"><g fill="#b732cc" fill-opacity="1"><g transform="translate(0.713802, 44.955698)"><g><path d="M 7.96875 0.21875 C 6.519531 0.21875 5.28125 -0.242188 4.25 -1.171875 C 3.164062 -2.078125 2.535156 -3.207031 2.359375 -4.5625 C 2.328125 -4.6875 2.300781 -4.816406 2.28125 -4.953125 C 2.269531 -5.085938 2.265625 -5.257812 2.265625 -5.46875 L 2.3125 -8.78125 L 6.375 -8.78125 L 6.375 -5.46875 C 6.375 -4.988281 6.523438 -4.613281 6.828125 -4.34375 C 7.160156 -4.007812 7.550781 -3.84375 8 -3.84375 L 8.546875 -3.84375 C 8.972656 -3.84375 9.351562 -4.007812 9.6875 -4.34375 C 10.039062 -4.644531 10.1875 -5.019531 10.125 -5.46875 L 10.171875 -12.890625 C 10.171875 -13.316406 10.007812 -13.691406 9.6875 -14.015625 C 9.382812 -14.347656 8.988281 -14.515625 8.5 -14.515625 L 2.265625 -14.515625 L 2.3125 -31.671875 L 14.75 -31.671875 L 14.75 -27.546875 L 6.375 -27.546875 L 6.375 -18.640625 L 8.5 -18.640625 C 9.914062 -18.640625 11.171875 -18.1875 12.265625 -17.28125 C 13.316406 -16.3125 13.945312 -15.148438 14.15625 -13.796875 C 14.1875 -13.671875 14.203125 -13.53125 14.203125 -13.375 C 14.203125 -13.226562 14.21875 -13.066406 14.25 -12.890625 L 14.203125 -5.46875 C 14.203125 -3.90625 13.644531 -2.566406 12.53125 -1.453125 C 11.414062 -0.335938 10.085938 0.21875 8.546875 0.21875 Z M 7.96875 0.21875 "/></g></g></g><g fill="#b732cc" fill-opacity="1"><g transform="translate(17.716106, 44.955698)"><g><path d="M 7.921875 0.265625 C 6.523438 0.265625 5.289062 -0.179688 4.21875 -1.078125 C 3.15625 -1.984375 2.535156 -3.117188 2.359375 -4.484375 C 2.328125 -4.566406 2.3125 -4.675781 2.3125 -4.8125 C 2.3125 -4.945312 2.296875 -5.125 2.265625 -5.34375 L 2.265625 -26.234375 C 2.265625 -27.347656 2.523438 -28.328125 3.046875 -29.171875 C 3.578125 -30.015625 4.269531 -30.6875 5.125 -31.1875 C 5.988281 -31.6875 6.921875 -31.9375 7.921875 -31.9375 L 8.375 -31.9375 C 9.789062 -31.9375 11.039062 -31.472656 12.125 -30.546875 C 13.207031 -29.628906 13.851562 -28.460938 14.0625 -27.046875 C 14.0625 -26.960938 14.066406 -26.84375 14.078125 -26.6875 C 14.097656 -26.539062 14.109375 -26.375 14.109375 -26.1875 L 14.15625 -24.15625 L 10.046875 -24.15625 L 10.09375 -26.1875 C 10.09375 -26.644531 9.925781 -27.035156 9.59375 -27.359375 C 9.257812 -27.691406 8.851562 -27.859375 8.375 -27.859375 L 7.921875 -27.859375 C 7.492188 -27.859375 7.117188 -27.691406 6.796875 -27.359375 C 6.484375 -27.035156 6.328125 -26.660156 6.328125 -26.234375 L 6.328125 -5.34375 C 6.328125 -4.914062 6.476562 -4.539062 6.78125 -4.21875 C 7.082031 -3.90625 7.460938 -3.75 7.921875 -3.75 L 8.453125 -3.75 C 8.972656 -3.75 9.367188 -3.929688 9.640625 -4.296875 C 9.910156 -4.660156 10.046875 -5.007812 10.046875 -5.34375 L 10.046875 -13.390625 L 8.328125 -13.390625 L 8.328125 -17.421875 L 14.109375 -17.421875 L 14.15625 -5.34375 C 14.09375 -3.644531 13.503906 -2.285156 12.390625 -1.265625 C 11.273438 -0.242188 9.960938 0.265625 8.453125 0.265625 Z M 7.921875 0.265625 "/></g></g></g></g></g></g></g></svg>