<svg xmlns="http://www.w3.org/2000/svg" xmlns:xlink="http://www.w3.org/1999/xlink" width="500" zoomAndPan="magnify" viewBox="0 0 375 374.999991" height="500" preserveAspectRatio="xMidYMid meet" version="1.0"><defs><clipPath id="97b3048bf9"><path d="M 90.882812 223 L 97.808594 223 L 97.808594 286.40625 L 90.882812 286.40625 Z M 90.882812 223 " clip-rule="nonzero"/></clipPath><clipPath id="454b9c065e"><path d="M 94.238281 286.0625 C 92.417969 286.0625 90.9375 284.585938 90.9375 282.761719 L 90.9375 226.398438 C 90.9375 224.574219 92.417969 223.097656 94.238281 223.097656 C 96.0625 223.097656 97.539062 224.574219 97.539062 226.398438 L 97.539062 282.761719 C 97.539062 284.585938 96.0625 286.0625 94.238281 286.0625 " clip-rule="nonzero"/></clipPath><clipPath id="016e727e76"><path d="M 0.882812 0 L 7.679688 0 L 7.679688 63.078125 L 0.882812 63.078125 Z M 0.882812 0 " clip-rule="nonzero"/></clipPath><clipPath id="7b30dab3bd"><path d="M 4.238281 63.0625 C 2.417969 63.0625 0.9375 61.585938 0.9375 59.761719 L 0.9375 3.398438 C 0.9375 1.574219 2.417969 0.0976562 4.238281 0.0976562 C 6.0625 0.0976562 7.539062 1.574219 7.539062 3.398438 L 7.539062 59.761719 C 7.539062 61.585938 6.0625 63.0625 4.238281 63.0625 " clip-rule="nonzero"/></clipPath><clipPath id="c01d93ebb7"><rect x="0" width="8" y="0" height="64"/></clipPath><clipPath id="422b81c5f8"><path d="M 129.214844 223 L 136.140625 223 L 136.140625 273 L 129.214844 273 Z M 129.214844 223 " clip-rule="nonzero"/></clipPath><clipPath id="d84b6776c1"><path d="M 132.808594 272.90625 C 130.984375 272.90625 129.503906 271.425781 129.503906 269.605469 L 129.503906 226.398438 C 129.503906 224.574219 130.984375 223.085938 132.808594 223.085938 C 134.628906 223.085938 136.109375 224.574219 136.109375 226.398438 L 136.109375 269.605469 C 136.109375 271.425781 134.628906 272.90625 132.808594 272.90625 " clip-rule="nonzero"/></clipPath><clipPath id="ec1bf284b8"><path d="M 0.359375 0 L 7.140625 0 L 7.140625 50 L 0.359375 50 Z M 0.359375 0 " clip-rule="nonzero"/></clipPath><clipPath id="1d5060e0b9"><path d="M 3.808594 49.90625 C 1.984375 49.90625 0.503906 48.425781 0.503906 46.605469 L 0.503906 3.398438 C 0.503906 1.574219 1.984375 0.0859375 3.808594 0.0859375 C 5.628906 0.0859375 7.109375 1.574219 7.109375 3.398438 L 7.109375 46.605469 C 7.109375 48.425781 5.628906 49.90625 3.808594 49.90625 " clip-rule="nonzero"/></clipPath><clipPath id="2df457b252"><rect x="0" width="8" y="0" height="50"/></clipPath><clipPath id="84c6023870"><path d="M 129.214844 279.015625 L 136.140625 279.015625 L 136.140625 329.820312 L 129.214844 329.820312 Z M 129.214844 279.015625 " clip-rule="nonzero"/></clipPath><clipPath id="2847447587"><path d="M 132.808594 329.519531 C 130.984375 329.519531 129.503906 328.042969 129.503906 326.21875 L 129.503906 282.761719 C 129.503906 280.9375 130.984375 279.460938 132.808594 279.460938 C 134.628906 279.460938 136.109375 280.9375 136.109375 282.761719 L 136.109375 326.21875 C 136.109375 328.042969 134.628906 329.519531 132.808594 329.519531 " clip-rule="nonzero"/></clipPath><clipPath id="43d3ad39ef"><path d="M 0.359375 0.359375 L 7.140625 0.359375 L 7.140625 50.761719 L 0.359375 50.761719 Z M 0.359375 0.359375 " clip-rule="nonzero"/></clipPath><clipPath id="839871ffaf"><path d="M 3.808594 50.519531 C 1.984375 50.519531 0.503906 49.042969 0.503906 47.21875 L 0.503906 3.761719 C 0.503906 1.9375 1.984375 0.460938 3.808594 0.460938 C 5.628906 0.460938 7.109375 1.9375 7.109375 3.761719 L 7.109375 47.21875 C 7.109375 49.042969 5.628906 50.519531 3.808594 50.519531 " clip-rule="nonzero"/></clipPath><clipPath id="5d2a43cdbf"><rect x="0" width="8" y="0" height="51"/></clipPath><clipPath id="c47b915619"><path d="M 142.605469 223 L 149.535156 223 L 149.535156 273 L 142.605469 273 Z M 142.605469 223 " clip-rule="nonzero"/></clipPath><clipPath id="db3df751c7"><path d="M 145.964844 272.90625 C 144.140625 272.90625 142.664062 271.425781 142.664062 269.605469 L 142.664062 226.398438 C 142.664062 224.574219 144.140625 223.085938 145.964844 223.085938 C 147.789062 223.085938 149.265625 224.566406 149.265625 226.398438 L 149.265625 269.605469 C 149.265625 271.425781 147.789062 272.90625 145.964844 272.90625 " clip-rule="nonzero"/></clipPath><clipPath id="e76563f00b"><path d="M 0.605469 0 L 7.28125 0 L 7.28125 50 L 0.605469 50 Z M 0.605469 0 " clip-rule="nonzero"/></clipPath><clipPath id="fc3f6fa6f3"><path d="M 3.964844 49.90625 C 2.140625 49.90625 0.664062 48.425781 0.664062 46.605469 L 0.664062 3.398438 C 0.664062 1.574219 2.140625 0.0859375 3.964844 0.0859375 C 5.789062 0.0859375 7.265625 1.566406 7.265625 3.398438 L 7.265625 46.605469 C 7.265625 48.425781 5.789062 49.90625 3.964844 49.90625 " clip-rule="nonzero"/></clipPath><clipPath id="7f3913d612"><rect x="0" width="8" y="0" height="50"/></clipPath><clipPath id="9b646c4fb0"><path d="M 142.605469 292 L 149.535156 292 L 149.535156 329.820312 L 142.605469 329.820312 Z M 142.605469 292 " clip-rule="nonzero"/></clipPath><clipPath id="f58ae7415c"><path d="M 145.964844 329.519531 C 144.140625 329.519531 142.664062 328.042969 142.664062 326.21875 L 142.664062 295.480469 C 142.664062 293.65625 144.140625 292.167969 145.964844 292.167969 C 147.789062 292.167969 149.265625 293.648438 149.265625 295.480469 L 149.265625 326.21875 C 149.265625 328.042969 147.789062 329.519531 145.964844 329.519531 " clip-rule="nonzero"/></clipPath><clipPath id="bfa3b1b40d"><path d="M 0.605469 0.078125 L 7.28125 0.078125 L 7.28125 37.761719 L 0.605469 37.761719 Z M 0.605469 0.078125 " clip-rule="nonzero"/></clipPath><clipPath id="7c1a78cce3"><path d="M 3.964844 37.519531 C 2.140625 37.519531 0.664062 36.042969 0.664062 34.21875 L 0.664062 3.480469 C 0.664062 1.65625 2.140625 0.167969 3.964844 0.167969 C 5.789062 0.167969 7.265625 1.648438 7.265625 3.480469 L 7.265625 34.21875 C 7.265625 36.042969 5.789062 37.519531 3.964844 37.519531 " clip-rule="nonzero"/></clipPath><clipPath id="5411fe2567"><rect x="0" width="8" y="0" height="38"/></clipPath><clipPath id="801d7cbd86"><path d="M 104 259.15625 L 110.738281 259.15625 L 110.738281 273 L 104 273 Z M 104 259.15625 " clip-rule="nonzero"/></clipPath><clipPath id="697638328f"><path d="M 107.398438 272.90625 C 105.574219 272.90625 104.097656 271.425781 104.097656 269.605469 L 104.097656 262.832031 C 104.097656 261.007812 105.574219 259.53125 107.398438 259.53125 C 109.222656 259.53125 110.699219 261.007812 110.699219 262.832031 L 110.699219 269.605469 C 110.699219 271.425781 109.222656 272.90625 107.398438 272.90625 " clip-rule="nonzero"/></clipPath><clipPath id="02452e9541"><path d="M 0 0.441406 L 6.738281 0.441406 L 6.738281 14 L 0 14 Z M 0 0.441406 " clip-rule="nonzero"/></clipPath><clipPath id="bf7146ab65"><path d="M 3.398438 13.90625 C 1.574219 13.90625 0.0976562 12.425781 0.0976562 10.605469 L 0.0976562 3.832031 C 0.0976562 2.007812 1.574219 0.53125 3.398438 0.53125 C 5.222656 0.53125 6.699219 2.007812 6.699219 3.832031 L 6.699219 10.605469 C 6.699219 12.425781 5.222656 13.90625 3.398438 13.90625 " clip-rule="nonzero"/></clipPath><clipPath id="5131d0055e"><rect x="0" width="7" y="0" height="14"/></clipPath><clipPath id="f50ea1bd18"><path d="M 90.882812 279.015625 L 123.671875 279.015625 L 123.671875 286.40625 L 90.882812 286.40625 Z M 90.882812 279.015625 " clip-rule="nonzero"/></clipPath><clipPath id="17af796557"><path d="M 120.105469 286.0625 L 94.238281 286.0625 C 92.417969 286.0625 90.9375 284.585938 90.9375 282.761719 C 90.9375 280.9375 92.417969 279.460938 94.238281 279.460938 L 120.105469 279.460938 C 121.929688 279.460938 123.410156 280.9375 123.410156 282.761719 C 123.410156 284.585938 121.929688 286.0625 120.105469 286.0625 " clip-rule="nonzero"/></clipPath><clipPath id="f35af950cb"><path d="M 0.882812 0.359375 L 33.601562 0.359375 L 33.601562 7.078125 L 0.882812 7.078125 Z M 0.882812 0.359375 " clip-rule="nonzero"/></clipPath><clipPath id="28ce451727"><path d="M 30.105469 7.0625 L 4.238281 7.0625 C 2.417969 7.0625 0.9375 5.585938 0.9375 3.761719 C 0.9375 1.9375 2.417969 0.460938 4.238281 0.460938 L 30.105469 0.460938 C 31.929688 0.460938 33.410156 1.9375 33.410156 3.761719 C 33.410156 5.585938 31.929688 7.0625 30.105469 7.0625 " clip-rule="nonzero"/></clipPath><clipPath id="913b728243"><rect x="0" width="34" y="0" height="8"/></clipPath><clipPath id="122d3ccceb"><path d="M 129.214844 279.015625 L 170 279.015625 L 170 286.40625 L 129.214844 286.40625 Z M 129.214844 279.015625 " clip-rule="nonzero"/></clipPath><clipPath id="76221a539c"><path d="M 166.59375 286.0625 L 132.808594 286.0625 C 130.984375 286.0625 129.503906 284.585938 129.503906 282.761719 C 129.503906 280.9375 130.984375 279.460938 132.808594 279.460938 L 166.59375 279.460938 C 168.417969 279.460938 169.894531 280.9375 169.894531 282.761719 C 169.894531 284.585938 168.417969 286.0625 166.59375 286.0625 " clip-rule="nonzero"/></clipPath><clipPath id="d3d12e704e"><path d="M 0.359375 0.359375 L 40.921875 0.359375 L 40.921875 7.078125 L 0.359375 7.078125 Z M 0.359375 0.359375 " clip-rule="nonzero"/></clipPath><clipPath id="2d4c226c2d"><path d="M 37.59375 7.0625 L 3.808594 7.0625 C 1.984375 7.0625 0.503906 5.585938 0.503906 3.761719 C 0.503906 1.9375 1.984375 0.460938 3.808594 0.460938 L 37.59375 0.460938 C 39.417969 0.460938 40.894531 1.9375 40.894531 3.761719 C 40.894531 5.585938 39.417969 7.0625 37.59375 7.0625 " clip-rule="nonzero"/></clipPath><clipPath id="13175d3911"><rect x="0" width="41" y="0" height="8"/></clipPath><clipPath id="15dda461e0"><path d="M 104 266.085938 L 136.140625 266.085938 L 136.140625 273 L 104 273 Z M 104 266.085938 " clip-rule="nonzero"/></clipPath><clipPath id="88a1183c7a"><path d="M 132.808594 272.90625 L 107.398438 272.90625 C 105.574219 272.90625 104.097656 271.425781 104.097656 269.605469 C 104.097656 267.78125 105.574219 266.300781 107.398438 266.300781 L 132.808594 266.300781 C 134.628906 266.300781 136.109375 267.78125 136.109375 269.605469 C 136.109375 271.425781 134.628906 272.90625 132.808594 272.90625 " clip-rule="nonzero"/></clipPath><clipPath id="785da208e5"><path d="M 0 0.160156 L 32.140625 0.160156 L 32.140625 7 L 0 7 Z M 0 0.160156 " clip-rule="nonzero"/></clipPath><clipPath id="2f8c1b5cc5"><path d="M 28.808594 6.90625 L 3.398438 6.90625 C 1.574219 6.90625 0.0976562 5.425781 0.0976562 3.605469 C 0.0976562 1.78125 1.574219 0.300781 3.398438 0.300781 L 28.808594 0.300781 C 30.628906 0.300781 32.109375 1.78125 32.109375 3.605469 C 32.109375 5.425781 30.628906 6.90625 28.808594 6.90625 " clip-rule="nonzero"/></clipPath><clipPath id="c858c345a8"><rect x="0" width="33" y="0" height="7"/></clipPath><clipPath id="fa09ca8999"><path d="M 142.605469 266.085938 L 157.386719 266.085938 L 157.386719 273 L 142.605469 273 Z M 142.605469 266.085938 " clip-rule="nonzero"/></clipPath><clipPath id="85da27887c"><path d="M 153.859375 272.90625 L 145.964844 272.90625 C 144.140625 272.90625 142.664062 271.425781 142.664062 269.605469 C 142.664062 267.78125 144.140625 266.300781 145.964844 266.300781 L 153.859375 266.300781 C 155.679688 266.300781 157.160156 267.78125 157.160156 269.605469 C 157.160156 271.425781 155.679688 272.90625 153.859375 272.90625 " clip-rule="nonzero"/></clipPath><clipPath id="dc06ced39b"><path d="M 0.605469 0.160156 L 15.199219 0.160156 L 15.199219 7 L 0.605469 7 Z M 0.605469 0.160156 " clip-rule="nonzero"/></clipPath><clipPath id="99265c1d1e"><path d="M 11.859375 6.90625 L 3.964844 6.90625 C 2.140625 6.90625 0.664062 5.425781 0.664062 3.605469 C 0.664062 1.78125 2.140625 0.300781 3.964844 0.300781 L 11.859375 0.300781 C 13.679688 0.300781 15.160156 1.78125 15.160156 3.605469 C 15.160156 5.425781 13.679688 6.90625 11.859375 6.90625 " clip-rule="nonzero"/></clipPath><clipPath id="c1fbe3f607"><rect x="0" width="16" y="0" height="7"/></clipPath><clipPath id="913fb0f619"><path d="M 163 266.085938 L 182.789062 266.085938 L 182.789062 273 L 163 273 Z M 163 266.085938 " clip-rule="nonzero"/></clipPath><clipPath id="11017cf4eb"><path d="M 179.40625 272.90625 L 166.59375 272.90625 C 164.773438 272.90625 163.292969 271.425781 163.292969 269.605469 C 163.292969 267.78125 164.773438 266.300781 166.59375 266.300781 L 179.40625 266.300781 C 181.230469 266.300781 182.707031 267.78125 182.707031 269.605469 C 182.707031 271.425781 181.230469 272.90625 179.40625 272.90625 " clip-rule="nonzero"/></clipPath><clipPath id="da2464377c"><path d="M 0.199219 0.160156 L 19.789062 0.160156 L 19.789062 7 L 0.199219 7 Z M 0.199219 0.160156 " clip-rule="nonzero"/></clipPath><clipPath id="1ab59512b2"><path d="M 16.40625 6.90625 L 3.59375 6.90625 C 1.773438 6.90625 0.292969 5.425781 0.292969 3.605469 C 0.292969 1.78125 1.773438 0.300781 3.59375 0.300781 L 16.40625 0.300781 C 18.230469 0.300781 19.707031 1.78125 19.707031 3.605469 C 19.707031 5.425781 18.230469 6.90625 16.40625 6.90625 " clip-rule="nonzero"/></clipPath><clipPath id="db8f9c0ea2"><rect x="0" width="20" y="0" height="7"/></clipPath><clipPath id="cc1051a130"><path d="M 104 223 L 110.738281 223 L 110.738281 253.617188 L 104 253.617188 Z M 104 223 " clip-rule="nonzero"/></clipPath><clipPath id="a4e86e4773"><path d="M 107.398438 253.414062 C 105.574219 253.414062 104.097656 251.9375 104.097656 250.113281 L 104.097656 226.398438 C 104.097656 224.574219 105.574219 223.097656 107.398438 223.097656 C 109.222656 223.097656 110.699219 224.574219 110.699219 226.398438 L 110.699219 250.105469 C 110.699219 251.929688 109.222656 253.40625 107.398438 253.40625 " clip-rule="nonzero"/></clipPath><clipPath id="af7331c85f"><path d="M 0 0 L 6.738281 0 L 6.738281 30.441406 L 0 30.441406 Z M 0 0 " clip-rule="nonzero"/></clipPath><clipPath id="bd05576aea"><path d="M 3.398438 30.414062 C 1.574219 30.414062 0.0976562 28.9375 0.0976562 27.113281 L 0.0976562 3.398438 C 0.0976562 1.574219 1.574219 0.0976562 3.398438 0.0976562 C 5.222656 0.0976562 6.699219 1.574219 6.699219 3.398438 L 6.699219 27.105469 C 6.699219 28.929688 5.222656 30.40625 3.398438 30.40625 " clip-rule="nonzero"/></clipPath><clipPath id="1382ba8ee5"><rect x="0" width="7" y="0" height="31"/></clipPath><clipPath id="91ac025550"><path d="M 156.460938 306 L 180.476562 306 L 180.476562 329.820312 L 156.460938 329.820312 Z M 156.460938 306 " clip-rule="nonzero"/></clipPath><clipPath id="5ac161b4bd"><path d="M 168.539062 329.519531 C 162.070312 329.519531 156.8125 324.257812 156.8125 317.792969 C 156.8125 311.332031 162.078125 306.066406 168.539062 306.066406 C 175.003906 306.066406 180.269531 311.332031 180.269531 317.792969 C 180.269531 324.257812 175.011719 329.519531 168.539062 329.519531 M 168.539062 312.667969 C 165.714844 312.667969 163.425781 314.96875 163.425781 317.785156 C 163.425781 320.597656 165.726562 322.910156 168.539062 322.910156 C 171.355469 322.910156 173.65625 320.609375 173.65625 317.785156 C 173.65625 314.960938 171.355469 312.667969 168.539062 312.667969 " clip-rule="nonzero"/></clipPath><clipPath id="fe48ed3971"><path d="M 0.71875 0 L 24.476562 0 L 24.476562 23.761719 L 0.71875 23.761719 Z M 0.71875 0 " clip-rule="nonzero"/></clipPath><clipPath id="b6d7e5670a"><path d="M 12.539062 23.519531 C 6.070312 23.519531 0.8125 18.257812 0.8125 11.792969 C 0.8125 5.332031 6.078125 0.0664062 12.539062 0.0664062 C 19.003906 0.0664062 24.269531 5.332031 24.269531 11.792969 C 24.269531 18.257812 19.011719 23.519531 12.539062 23.519531 M 12.539062 6.667969 C 9.714844 6.667969 7.425781 8.96875 7.425781 11.785156 C 7.425781 14.597656 9.726562 16.910156 12.539062 16.910156 C 15.355469 16.910156 17.65625 14.609375 17.65625 11.785156 C 17.65625 8.960938 15.355469 6.667969 12.539062 6.667969 " clip-rule="nonzero"/></clipPath><clipPath id="68cdcfc1f5"><rect x="0" width="25" y="0" height="24"/></clipPath><clipPath id="964f2391c2"><path d="M 213.269531 223 L 222 223 L 222 230.523438 L 213.269531 230.523438 Z M 213.269531 223 " clip-rule="nonzero"/></clipPath><clipPath id="ec7d6e2525"><path d="M 216.945312 230.109375 C 215.476562 230.109375 214.140625 229.128906 213.757812 227.652344 C 213.289062 225.882812 214.347656 224.078125 216.105469 223.609375 C 216.628906 223.472656 217.171875 223.339844 217.703125 223.207031 C 219.480469 222.796875 221.257812 223.902344 221.667969 225.6875 C 222.078125 227.472656 220.976562 229.242188 219.191406 229.652344 C 218.722656 229.765625 218.246094 229.875 217.789062 230 C 217.507812 230.074219 217.21875 230.109375 216.945312 230.109375 " clip-rule="nonzero"/></clipPath><clipPath id="e653752386"><path d="M 0.269531 0 L 9 0 L 9 7.160156 L 0.269531 7.160156 Z M 0.269531 0 " clip-rule="nonzero"/></clipPath><clipPath id="9fdf397e70"><path d="M 3.945312 7.109375 C 2.476562 7.109375 1.140625 6.128906 0.757812 4.652344 C 0.289062 2.882812 1.347656 1.078125 3.105469 0.609375 C 3.628906 0.472656 4.171875 0.339844 4.703125 0.207031 C 6.480469 -0.203125 8.257812 0.902344 8.667969 2.6875 C 9.078125 4.472656 7.976562 6.242188 6.191406 6.652344 C 5.722656 6.765625 5.246094 6.875 4.789062 7 C 4.507812 7.074219 4.21875 7.109375 3.945312 7.109375 " clip-rule="nonzero"/></clipPath><clipPath id="361eb59215"><rect x="0" width="9" y="0" height="8"/></clipPath><clipPath id="d7254a01a0"><path d="M 176 227.289062 L 210 227.289062 L 210 273 L 176 273 Z M 176 227.289062 " clip-rule="nonzero"/></clipPath><clipPath id="827db8ced0"><path d="M 179.34375 272.90625 C 179.203125 272.90625 179.0625 272.894531 178.910156 272.875 C 177.097656 272.644531 175.824219 270.976562 176.058594 269.171875 C 178.351562 251.488281 189.21875 236.03125 205.125 227.828125 C 206.753906 226.996094 208.746094 227.632812 209.578125 229.25 C 210.410156 230.867188 209.773438 232.871094 208.15625 233.703125 C 194.183594 240.910156 184.636719 254.492188 182.613281 270.023438 C 182.398438 271.6875 180.976562 272.90625 179.34375 272.90625 " clip-rule="nonzero"/></clipPath><clipPath id="d0dafa1e99"><path d="M 0 0.289062 L 34 0.289062 L 34 46 L 0 46 Z M 0 0.289062 " clip-rule="nonzero"/></clipPath><clipPath id="8198696c11"><path d="M 3.34375 45.90625 C 3.203125 45.90625 3.0625 45.894531 2.910156 45.875 C 1.097656 45.644531 -0.175781 43.976562 0.0585938 42.171875 C 2.351562 24.488281 13.21875 9.03125 29.125 0.828125 C 30.753906 -0.00390625 32.746094 0.632812 33.578125 2.25 C 34.410156 3.867188 33.773438 5.871094 32.15625 6.703125 C 18.183594 13.910156 8.636719 27.492188 6.613281 43.023438 C 6.398438 44.6875 4.976562 45.90625 3.34375 45.90625 " clip-rule="nonzero"/></clipPath><clipPath id="971a18f406"><rect x="0" width="34" y="0" height="46"/></clipPath><clipPath id="b5fbee605c"><path d="M 176 221.75 L 284.855469 221.75 L 284.855469 330.742188 L 176 330.742188 Z M 176 221.75 " clip-rule="nonzero"/></clipPath><clipPath id="442a12a99a"><path d="M 230.046875 330.691406 C 216.722656 330.691406 203.890625 325.816406 193.929688 316.980469 C 184.054688 308.21875 177.695312 296.210938 176.039062 283.171875 C 175.808594 281.359375 177.089844 279.703125 178.902344 279.480469 C 180.714844 279.253906 182.363281 280.527344 182.597656 282.339844 C 184.054688 293.789062 189.628906 304.335938 198.308594 312.03125 C 207.0625 319.796875 218.328125 324.078125 230.039062 324.078125 C 242.8125 324.078125 254.832031 319.101562 263.863281 310.070312 C 272.898438 301.035156 277.875 289.027344 277.875 276.253906 C 277.875 263.476562 272.898438 251.46875 263.863281 242.4375 C 254.832031 233.402344 242.824219 228.425781 230.039062 228.425781 C 228.214844 228.425781 226.738281 226.949219 226.738281 225.117188 C 226.738281 223.285156 228.214844 221.804688 230.046875 221.804688 C 237.398438 221.804688 244.523438 223.246094 251.238281 226.089844 C 257.71875 228.828125 263.546875 232.757812 268.539062 237.75 C 273.535156 242.746094 277.460938 248.570312 280.203125 255.050781 C 283.042969 261.765625 284.484375 268.894531 284.484375 276.242188 C 284.484375 283.59375 283.042969 290.71875 280.203125 297.433594 C 277.460938 303.914062 273.535156 309.742188 268.539062 314.734375 C 263.546875 319.730469 257.71875 323.65625 251.238281 326.398438 C 244.523438 329.242188 237.398438 330.679688 230.046875 330.679688 " clip-rule="nonzero"/></clipPath><clipPath id="896979194e"><path d="M 0 0.761719 L 108.640625 0.761719 L 108.640625 109.71875 L 0 109.71875 Z M 0 0.761719 " clip-rule="nonzero"/></clipPath><clipPath id="5ff003a82c"><path d="M 54.046875 109.691406 C 40.722656 109.691406 27.890625 104.816406 17.929688 95.980469 C 8.054688 87.21875 1.695312 75.210938 0.0390625 62.171875 C -0.191406 60.359375 1.089844 58.703125 2.902344 58.480469 C 4.714844 58.253906 6.363281 59.527344 6.597656 61.339844 C 8.054688 72.789062 13.628906 83.335938 22.308594 91.03125 C 31.0625 98.796875 42.328125 103.078125 54.039062 103.078125 C 66.8125 103.078125 78.832031 98.101562 87.863281 89.070312 C 96.898438 80.035156 101.875 68.027344 101.875 55.253906 C 101.875 42.476562 96.898438 30.46875 87.863281 21.4375 C 78.832031 12.402344 66.824219 7.425781 54.039062 7.425781 C 52.214844 7.425781 50.738281 5.949219 50.738281 4.117188 C 50.738281 2.285156 52.214844 0.804688 54.046875 0.804688 C 61.398438 0.804688 68.523438 2.246094 75.238281 5.089844 C 81.71875 7.828125 87.546875 11.757812 92.539062 16.75 C 97.535156 21.746094 101.460938 27.570312 104.203125 34.050781 C 107.042969 40.765625 108.484375 47.894531 108.484375 55.242188 C 108.484375 62.59375 107.042969 69.71875 104.203125 76.433594 C 101.460938 82.914062 97.535156 88.742188 92.539062 93.734375 C 87.546875 98.730469 81.71875 102.65625 75.238281 105.398438 C 68.523438 108.242188 61.398438 109.679688 54.046875 109.679688 " clip-rule="nonzero"/></clipPath><clipPath id="ddcc03e1ca"><rect x="0" width="109" y="0" height="110"/></clipPath><clipPath id="749254fe6d"><path d="M 188.328125 234.679688 L 271.921875 234.679688 L 271.921875 317.8125 L 188.328125 317.8125 Z M 188.328125 234.679688 " clip-rule="nonzero"/></clipPath><clipPath id="d92088f4f3"><path d="M 230.046875 317.679688 C 218.984375 317.679688 208.574219 313.371094 200.75 305.542969 C 192.921875 297.714844 188.609375 287.316406 188.609375 276.242188 C 188.609375 265.171875 192.921875 254.773438 200.75 246.945312 C 208.574219 239.117188 218.976562 234.804688 230.046875 234.804688 C 231.871094 234.804688 233.347656 236.28125 233.347656 238.105469 C 233.347656 239.929688 231.871094 241.40625 230.046875 241.40625 C 220.742188 241.40625 212 245.027344 205.425781 251.609375 C 198.851562 258.195312 195.222656 266.9375 195.222656 276.234375 C 195.222656 285.53125 198.839844 294.285156 205.425781 300.859375 C 212.007812 307.433594 220.753906 311.058594 230.046875 311.058594 C 239.34375 311.058594 248.097656 307.441406 254.671875 300.859375 C 261.246094 294.273438 264.875 285.539062 264.875 276.234375 C 264.875 266.929688 261.253906 258.183594 254.671875 251.609375 C 250.773438 247.710938 246.171875 244.867188 241.007812 243.15625 C 239.277344 242.585938 238.332031 240.714844 238.902344 238.984375 C 239.472656 237.253906 241.34375 236.3125 243.074219 236.882812 C 249.226562 238.910156 254.699219 242.296875 259.335938 246.933594 C 267.164062 254.761719 271.476562 265.171875 271.476562 276.234375 C 271.476562 287.296875 267.164062 297.707031 259.335938 305.535156 C 251.511719 313.359375 241.109375 317.671875 230.039062 317.671875 " clip-rule="nonzero"/></clipPath><clipPath id="4896445849"><path d="M 0.398438 0.71875 L 83.679688 0.71875 L 83.679688 83.761719 L 0.398438 83.761719 Z M 0.398438 0.71875 " clip-rule="nonzero"/></clipPath><clipPath id="73b2559708"><path d="M 42.046875 83.679688 C 30.984375 83.679688 20.574219 79.371094 12.75 71.542969 C 4.921875 63.714844 0.609375 53.316406 0.609375 42.242188 C 0.609375 31.171875 4.921875 20.773438 12.75 12.945312 C 20.574219 5.117188 30.976562 0.804688 42.046875 0.804688 C 43.871094 0.804688 45.347656 2.28125 45.347656 4.105469 C 45.347656 5.929688 43.871094 7.40625 42.046875 7.40625 C 32.742188 7.40625 24 11.027344 17.425781 17.609375 C 10.851562 24.195312 7.222656 32.9375 7.222656 42.234375 C 7.222656 51.53125 10.839844 60.285156 17.425781 66.859375 C 24.007812 73.433594 32.753906 77.058594 42.046875 77.058594 C 51.34375 77.058594 60.097656 73.441406 66.671875 66.859375 C 73.246094 60.273438 76.875 51.539062 76.875 42.234375 C 76.875 32.929688 73.253906 24.183594 66.671875 17.609375 C 62.773438 13.710938 58.171875 10.867188 53.007812 9.15625 C 51.277344 8.585938 50.332031 6.714844 50.902344 4.984375 C 51.472656 3.253906 53.34375 2.3125 55.074219 2.882812 C 61.226562 4.910156 66.699219 8.296875 71.335938 12.933594 C 79.164062 20.761719 83.476562 31.171875 83.476562 42.234375 C 83.476562 53.296875 79.164062 63.707031 71.335938 71.535156 C 63.511719 79.359375 53.109375 83.671875 42.039062 83.671875 " clip-rule="nonzero"/></clipPath><clipPath id="48a4a21b1f"><rect x="0" width="84" y="0" height="84"/></clipPath><clipPath id="52d6b25c1a"><path d="M 226.660156 221.75 L 233.589844 221.75 L 233.589844 241.609375 L 226.660156 241.609375 Z M 226.660156 221.75 " clip-rule="nonzero"/></clipPath><clipPath id="f23abff6b7"><path d="M 230.046875 241.417969 C 228.222656 241.417969 226.746094 239.941406 226.746094 238.117188 L 226.746094 225.117188 C 226.746094 223.292969 228.222656 221.804688 230.046875 221.804688 C 231.871094 221.804688 233.347656 223.285156 233.347656 225.117188 L 233.347656 238.117188 C 233.347656 239.941406 231.871094 241.417969 230.046875 241.417969 " clip-rule="nonzero"/></clipPath><clipPath id="253b16c1c7"><path d="M 0.660156 0.761719 L 7.519531 0.761719 L 7.519531 20.441406 L 0.660156 20.441406 Z M 0.660156 0.761719 " clip-rule="nonzero"/></clipPath><clipPath id="666e3e67ff"><path d="M 4.046875 20.417969 C 2.222656 20.417969 0.746094 18.941406 0.746094 17.117188 L 0.746094 4.117188 C 0.746094 2.292969 2.222656 0.804688 4.046875 0.804688 C 5.871094 0.804688 7.347656 2.285156 7.347656 4.117188 L 7.347656 17.117188 C 7.347656 18.941406 5.871094 20.417969 4.046875 20.417969 " clip-rule="nonzero"/></clipPath><clipPath id="161ed3ba3c"><rect x="0" width="8" y="0" height="21"/></clipPath><clipPath id="ebaa445f85"><path d="M 205 126.390625 L 283.945312 126.390625 L 283.945312 204.785156 L 205 204.785156 Z M 205 126.390625 " clip-rule="nonzero"/></clipPath><clipPath id="ca78c43234"><path d="M 272.03125 138.179688 C 264.660156 130.8125 254.867188 126.753906 244.449219 126.753906 C 234.03125 126.753906 224.242188 130.8125 216.871094 138.179688 C 209.503906 145.550781 205.445312 155.339844 205.445312 165.757812 C 205.445312 176.175781 209.503906 185.96875 216.871094 193.339844 C 224.242188 200.707031 234.03125 204.765625 244.449219 204.765625 C 254.867188 204.765625 264.660156 200.707031 272.03125 193.339844 C 279.398438 185.96875 283.457031 176.175781 283.457031 165.757812 C 283.457031 155.339844 279.398438 145.539062 272.03125 138.179688 M 264.714844 165.757812 C 264.714844 176.933594 255.625 186.023438 244.449219 186.023438 C 233.273438 186.023438 224.183594 176.933594 224.183594 165.757812 C 224.183594 154.582031 233.273438 145.492188 244.449219 145.492188 C 255.625 145.492188 264.714844 154.582031 264.714844 165.757812 " clip-rule="nonzero"/></clipPath><clipPath id="5027395971"><path d="M 0.441406 0.71875 L 78.679688 0.71875 L 78.679688 78.785156 L 0.441406 78.785156 Z M 0.441406 0.71875 " clip-rule="nonzero"/></clipPath><clipPath id="dbb929abb1"><path d="M 67.03125 12.179688 C 59.660156 4.8125 49.867188 0.753906 39.449219 0.753906 C 29.03125 0.753906 19.242188 4.8125 11.871094 12.179688 C 4.503906 19.550781 0.445312 29.339844 0.445312 39.757812 C 0.445312 50.175781 4.503906 59.96875 11.871094 67.339844 C 19.242188 74.707031 29.03125 78.765625 39.449219 78.765625 C 49.867188 78.765625 59.660156 74.707031 67.03125 67.339844 C 74.398438 59.96875 78.457031 50.175781 78.457031 39.757812 C 78.457031 29.339844 74.398438 19.539062 67.03125 12.179688 M 59.714844 39.757812 C 59.714844 50.933594 50.625 60.023438 39.449219 60.023438 C 28.273438 60.023438 19.183594 50.933594 19.183594 39.757812 C 19.183594 28.582031 28.273438 19.492188 39.449219 19.492188 C 50.625 19.492188 59.714844 28.582031 59.714844 39.757812 " clip-rule="nonzero"/></clipPath><clipPath id="cce19b2767"><rect x="0" width="79" y="0" height="79"/></clipPath><clipPath id="633031cf3c"><path d="M 262.019531 45 L 281.289062 45 L 281.289062 121 L 262.019531 121 Z M 262.019531 45 " clip-rule="nonzero"/></clipPath><clipPath id="5dcb0219eb"><path d="M 271.664062 45.25 C 266.503906 45.25 262.292969 49.449219 262.292969 54.621094 L 262.292969 111.351562 C 262.292969 116.511719 266.503906 120.71875 271.664062 120.71875 C 276.828125 120.71875 281.035156 116.523438 281.035156 111.351562 L 281.035156 54.621094 C 281.035156 49.460938 276.835938 45.25 271.664062 45.25 " clip-rule="nonzero"/></clipPath><clipPath id="ff8c937ad2"><path d="M 0.078125 0.121094 L 19.039062 0.121094 L 19.039062 75.960938 L 0.078125 75.960938 Z M 0.078125 0.121094 " clip-rule="nonzero"/></clipPath><clipPath id="c9a84f497c"><path d="M 9.664062 0.25 C 4.503906 0.25 0.292969 4.449219 0.292969 9.621094 L 0.292969 66.351562 C 0.292969 71.511719 4.503906 75.71875 9.664062 75.71875 C 14.828125 75.71875 19.035156 71.523438 19.035156 66.351562 L 19.035156 9.621094 C 19.035156 4.460938 14.835938 0.25 9.664062 0.25 " clip-rule="nonzero"/></clipPath><clipPath id="ff811e6bbb"><rect x="0" width="20" y="0" height="76"/></clipPath><clipPath id="64e726ab69"><path d="M 217.507812 83.207031 L 236.773438 83.207031 L 236.773438 121 L 217.507812 121 Z M 217.507812 83.207031 " clip-rule="nonzero"/></clipPath><clipPath id="047e42c3bb"><path d="M 227.066406 83.351562 C 221.902344 83.351562 217.695312 87.550781 217.695312 92.722656 L 217.695312 111.351562 C 217.695312 116.511719 221.894531 120.71875 227.066406 120.71875 C 232.238281 120.71875 236.4375 116.523438 236.4375 111.351562 L 236.4375 92.722656 C 236.4375 87.550781 232.238281 83.351562 227.066406 83.351562 " clip-rule="nonzero"/></clipPath><clipPath id="170156c54e"><path d="M 0.679688 0.28125 L 19.640625 0.28125 L 19.640625 37.960938 L 0.679688 37.960938 Z M 0.679688 0.28125 " clip-rule="nonzero"/></clipPath><clipPath id="74cd5a86bd"><path d="M 10.066406 0.351562 C 4.902344 0.351562 0.695312 4.550781 0.695312 9.722656 L 0.695312 28.351562 C 0.695312 33.511719 4.894531 37.71875 10.066406 37.71875 C 15.238281 37.71875 19.4375 33.523438 19.4375 28.351562 L 19.4375 9.722656 C 19.4375 4.550781 15.238281 0.351562 10.066406 0.351562 " clip-rule="nonzero"/></clipPath><clipPath id="d6eb298ff8"><rect x="0" width="20" y="0" height="38"/></clipPath><clipPath id="2b338be7bf"><path d="M 217.507812 45 L 281 45 L 281 121 L 217.507812 121 Z M 217.507812 45 " clip-rule="nonzero"/></clipPath><clipPath id="019d867852"><path d="M 278.949219 105.65625 L 234.417969 48.84375 C 232.875 46.878906 230.65625 45.625 228.179688 45.324219 C 225.699219 45.027344 223.25 45.710938 221.277344 47.253906 C 219.304688 48.796875 218.058594 51.011719 217.761719 53.488281 C 217.460938 55.96875 218.144531 58.417969 219.6875 60.390625 L 264.210938 117.203125 C 265.753906 119.167969 267.972656 120.421875 270.449219 120.71875 C 270.832031 120.765625 271.214844 120.796875 271.589844 120.796875 C 273.675781 120.796875 275.675781 120.101562 277.339844 118.804688 C 279.304688 117.261719 280.558594 115.042969 280.859375 112.566406 C 281.15625 110.085938 280.472656 107.636719 278.929688 105.664062 " clip-rule="nonzero"/></clipPath><clipPath id="991a978db6"><path d="M 0.507812 0 L 64 0 L 64 75.960938 L 0.507812 75.960938 Z M 0.507812 0 " clip-rule="nonzero"/></clipPath><clipPath id="69824d040c"><path d="M 61.949219 60.65625 L 17.417969 3.84375 C 15.875 1.878906 13.65625 0.625 11.179688 0.324219 C 8.699219 0.0273438 6.25 0.710938 4.277344 2.253906 C 2.304688 3.796875 1.058594 6.011719 0.761719 8.488281 C 0.460938 10.96875 1.144531 13.417969 2.6875 15.390625 L 47.210938 72.203125 C 48.753906 74.167969 50.972656 75.421875 53.449219 75.71875 C 53.832031 75.765625 54.214844 75.796875 54.589844 75.796875 C 56.675781 75.796875 58.675781 75.101562 60.339844 73.804688 C 62.304688 72.261719 63.558594 70.042969 63.859375 67.566406 C 64.15625 65.085938 63.472656 62.636719 61.929688 60.664062 " clip-rule="nonzero"/></clipPath><clipPath id="ec53b3e9fc"><rect x="0" width="64" y="0" height="76"/></clipPath><clipPath id="ddb9f9cfef"><path d="M 169.675781 101.808594 L 212.859375 101.808594 L 212.859375 121 L 169.675781 121 Z M 169.675781 101.808594 " clip-rule="nonzero"/></clipPath><clipPath id="f6cf2ac378"><path d="M 203.164062 101.980469 L 179.363281 101.980469 C 174.199219 101.980469 169.992188 106.179688 169.992188 111.351562 C 169.992188 116.523438 174.199219 120.71875 179.363281 120.71875 L 203.164062 120.71875 C 208.324219 120.71875 212.53125 116.523438 212.53125 111.351562 C 212.53125 106.179688 208.332031 101.980469 203.164062 101.980469 " clip-rule="nonzero"/></clipPath><clipPath id="6b28f7a364"><path d="M 0.921875 0.808594 L 43.640625 0.808594 L 43.640625 19.960938 L 0.921875 19.960938 Z M 0.921875 0.808594 " clip-rule="nonzero"/></clipPath><clipPath id="4473bb2858"><path d="M 34.164062 0.980469 L 10.363281 0.980469 C 5.199219 0.980469 0.992188 5.179688 0.992188 10.351562 C 0.992188 15.523438 5.199219 19.71875 10.363281 19.71875 L 34.164062 19.71875 C 39.324219 19.71875 43.53125 15.523438 43.53125 10.351562 C 43.53125 5.179688 39.332031 0.980469 34.164062 0.980469 " clip-rule="nonzero"/></clipPath><clipPath id="dc7f482baf"><rect x="0" width="44" y="0" height="20"/></clipPath><clipPath id="6f3352205e"><path d="M 169.675781 73.242188 L 188.941406 73.242188 L 188.941406 121 L 169.675781 121 Z M 169.675781 73.242188 " clip-rule="nonzero"/></clipPath><clipPath id="efad56ddc2"><path d="M 179.363281 73.613281 C 174.199219 73.613281 169.992188 77.8125 169.992188 82.984375 L 169.992188 111.351562 C 169.992188 116.523438 174.199219 120.71875 179.363281 120.71875 C 184.523438 120.71875 188.730469 116.523438 188.730469 111.351562 L 188.730469 82.984375 C 188.730469 77.8125 184.535156 73.613281 179.363281 73.613281 " clip-rule="nonzero"/></clipPath><clipPath id="8db37e0df5"><path d="M 0.921875 0.441406 L 19.878906 0.441406 L 19.878906 47.960938 L 0.921875 47.960938 Z M 0.921875 0.441406 " clip-rule="nonzero"/></clipPath><clipPath id="1e5905da72"><path d="M 10.363281 0.613281 C 5.199219 0.613281 0.992188 4.8125 0.992188 9.984375 L 0.992188 38.351562 C 0.992188 43.523438 5.199219 47.71875 10.363281 47.71875 C 15.523438 47.71875 19.730469 43.523438 19.730469 38.351562 L 19.730469 9.984375 C 19.730469 4.8125 15.535156 0.613281 10.363281 0.613281 " clip-rule="nonzero"/></clipPath><clipPath id="06f4591382"><rect x="0" width="20" y="0" height="48"/></clipPath><clipPath id="73a73778fe"><path d="M 169.675781 45 L 212.859375 45 L 212.859375 64 L 169.675781 64 Z M 169.675781 45 " clip-rule="nonzero"/></clipPath><clipPath id="0c15be9ee3"><path d="M 203.164062 45.25 L 179.363281 45.25 C 174.199219 45.25 169.992188 49.449219 169.992188 54.621094 C 169.992188 59.792969 174.191406 63.992188 179.363281 63.992188 L 203.164062 63.992188 C 208.324219 63.992188 212.53125 59.792969 212.53125 54.621094 C 212.53125 49.449219 208.332031 45.25 203.164062 45.25 " clip-rule="nonzero"/></clipPath><clipPath id="cfefe56caa"><path d="M 0.921875 0.121094 L 43.640625 0.121094 L 43.640625 19 L 0.921875 19 Z M 0.921875 0.121094 " clip-rule="nonzero"/></clipPath><clipPath id="2d2aab6250"><path d="M 34.164062 0.25 L 10.363281 0.25 C 5.199219 0.25 0.992188 4.449219 0.992188 9.621094 C 0.992188 14.792969 5.191406 18.992188 10.363281 18.992188 L 34.164062 18.992188 C 39.324219 18.992188 43.53125 14.792969 43.53125 9.621094 C 43.53125 4.449219 39.332031 0.25 34.164062 0.25 " clip-rule="nonzero"/></clipPath><clipPath id="4254264da3"><rect x="0" width="44" y="0" height="19"/></clipPath><clipPath id="6ea18fc4bd"><path d="M 169.675781 73.242188 L 212.859375 73.242188 L 212.859375 92.507812 L 169.675781 92.507812 Z M 169.675781 73.242188 " clip-rule="nonzero"/></clipPath><clipPath id="89ef23f5e7"><path d="M 203.164062 73.613281 L 179.363281 73.613281 C 174.199219 73.613281 169.992188 77.8125 169.992188 82.984375 C 169.992188 88.15625 174.191406 92.355469 179.363281 92.355469 L 203.164062 92.355469 C 208.324219 92.355469 212.53125 88.15625 212.53125 82.984375 C 212.53125 77.8125 208.332031 73.613281 203.164062 73.613281 " clip-rule="nonzero"/></clipPath><clipPath id="cc3dea9b4f"><path d="M 0.921875 0.441406 L 43.640625 0.441406 L 43.640625 19.398438 L 0.921875 19.398438 Z M 0.921875 0.441406 " clip-rule="nonzero"/></clipPath><clipPath id="a0b802bdb3"><path d="M 34.164062 0.613281 L 10.363281 0.613281 C 5.199219 0.613281 0.992188 4.8125 0.992188 9.984375 C 0.992188 15.15625 5.191406 19.355469 10.363281 19.355469 L 34.164062 19.355469 C 39.324219 19.355469 43.53125 15.15625 43.53125 9.984375 C 43.53125 4.8125 39.332031 0.613281 34.164062 0.613281 " clip-rule="nonzero"/></clipPath><clipPath id="10410f5663"><rect x="0" width="44" y="0" height="20"/></clipPath><clipPath id="8f1f9f3be7"><path d="M 91.941406 44.011719 L 165 44.011719 L 165 122.40625 L 91.941406 122.40625 Z M 91.941406 44.011719 " clip-rule="nonzero"/></clipPath><clipPath id="289a0f04ee"><path d="M 158.574219 91.457031 C 154.558594 89.878906 149.996094 91.234375 147.492188 94.761719 C 143.5625 100.277344 137.195312 103.464844 130.453125 103.296875 C 125.269531 103.167969 120.378906 101.074219 116.675781 97.378906 C 112.972656 93.683594 110.859375 88.8125 110.710938 83.632812 C 110.550781 78.113281 112.589844 72.886719 116.441406 68.921875 C 120.296875 64.957031 125.457031 62.765625 130.964844 62.765625 C 137.511719 62.765625 143.695312 65.964844 147.5 71.332031 C 149.996094 74.851562 154.550781 76.195312 158.5625 74.617188 C 161.265625 73.550781 163.296875 71.34375 164.117188 68.554688 C 164.941406 65.777344 164.453125 62.832031 162.78125 60.476562 C 155.46875 50.152344 143.601562 44.035156 130.964844 44.035156 C 130.777344 44.035156 130.582031 44.035156 130.394531 44.035156 C 120.042969 44.183594 110.363281 48.316406 103.132812 55.667969 C 95.90625 63.019531 91.949219 72.765625 91.96875 83.125 C 91.988281 93.523438 96.054688 103.296875 103.425781 110.648438 C 110.792969 118 120.566406 122.046875 130.976562 122.046875 C 137.304688 122.046875 143.601562 120.496094 149.164062 117.558594 C 154.550781 114.714844 159.265625 110.582031 162.800781 105.609375 C 164.472656 103.25 164.960938 100.304688 164.136719 97.527344 C 163.304688 94.742188 161.285156 92.535156 158.582031 91.46875 " clip-rule="nonzero"/></clipPath><clipPath id="17b4a45e02"><path d="M 0.941406 0.0117188 L 74 0.0117188 L 74 78.160156 L 0.941406 78.160156 Z M 0.941406 0.0117188 " clip-rule="nonzero"/></clipPath><clipPath id="8888558839"><path d="M 67.574219 47.457031 C 63.558594 45.878906 58.996094 47.234375 56.492188 50.761719 C 52.5625 56.277344 46.195312 59.464844 39.453125 59.296875 C 34.269531 59.167969 29.378906 57.074219 25.675781 53.378906 C 21.972656 49.683594 19.859375 44.8125 19.710938 39.632812 C 19.550781 34.113281 21.589844 28.886719 25.441406 24.921875 C 29.296875 20.957031 34.457031 18.765625 39.964844 18.765625 C 46.511719 18.765625 52.695312 21.964844 56.5 27.332031 C 58.996094 30.851562 63.550781 32.195312 67.5625 30.617188 C 70.265625 29.550781 72.296875 27.34375 73.117188 24.554688 C 73.941406 21.777344 73.453125 18.832031 71.78125 16.476562 C 64.46875 6.152344 52.601562 0.0351562 39.964844 0.0351562 C 39.777344 0.0351562 39.582031 0.0351562 39.394531 0.0351562 C 29.042969 0.183594 19.363281 4.316406 12.132812 11.667969 C 4.90625 19.019531 0.949219 28.765625 0.96875 39.125 C 0.988281 49.523438 5.054688 59.296875 12.425781 66.648438 C 19.792969 74 29.566406 78.046875 39.976562 78.046875 C 46.304688 78.046875 52.601562 76.496094 58.164062 73.558594 C 63.550781 70.714844 68.265625 66.582031 71.800781 61.609375 C 73.472656 59.25 73.960938 56.304688 73.136719 53.527344 C 72.304688 50.742188 70.285156 48.535156 67.582031 47.46875 " clip-rule="nonzero"/></clipPath><clipPath id="b8b32bf495"><rect x="0" width="74" y="0" height="79"/></clipPath><clipPath id="e693fd3d9c"><path d="M 120.511719 128 L 139.777344 128 L 139.777344 204 L 120.511719 204 Z M 120.511719 128 " clip-rule="nonzero"/></clipPath><clipPath id="4a497f4d06"><path d="M 130.050781 128.023438 C 124.886719 128.023438 120.679688 132.222656 120.679688 137.394531 L 120.679688 194.125 C 120.679688 199.285156 124.878906 203.496094 130.050781 203.496094 C 135.222656 203.496094 139.417969 199.296875 139.417969 194.125 L 139.417969 137.394531 C 139.417969 132.222656 135.222656 128.023438 130.050781 128.023438 " clip-rule="nonzero"/></clipPath><clipPath id="0e4f41212f"><path d="M 0.511719 0 L 19.441406 0 L 19.441406 75.519531 L 0.511719 75.519531 Z M 0.511719 0 " clip-rule="nonzero"/></clipPath><clipPath id="7e0726f39b"><path d="M 10.050781 0.0234375 C 4.886719 0.0234375 0.679688 4.222656 0.679688 9.394531 L 0.679688 66.125 C 0.679688 71.285156 4.878906 75.496094 10.050781 75.496094 C 15.222656 75.496094 19.417969 71.296875 19.417969 66.125 L 19.417969 9.394531 C 19.417969 4.222656 15.222656 0.0234375 10.050781 0.0234375 " clip-rule="nonzero"/></clipPath><clipPath id="a21ffdf6e8"><rect x="0" width="20" y="0" height="76"/></clipPath><clipPath id="416f5e7aee"><path d="M 94.601562 128 L 139.777344 128 L 139.777344 146.988281 L 94.601562 146.988281 Z M 94.601562 128 " clip-rule="nonzero"/></clipPath><clipPath id="362a91647c"><path d="M 130.050781 128.023438 L 104.070312 128.023438 C 98.90625 128.023438 94.699219 132.222656 94.699219 137.394531 C 94.699219 142.566406 98.898438 146.765625 104.070312 146.765625 L 130.050781 146.765625 C 135.210938 146.765625 139.417969 142.566406 139.417969 137.394531 C 139.417969 132.222656 135.210938 128.023438 130.050781 128.023438 " clip-rule="nonzero"/></clipPath><clipPath id="8c6f901049"><path d="M 0.601562 0 L 45.441406 0 L 45.441406 18.878906 L 0.601562 18.878906 Z M 0.601562 0 " clip-rule="nonzero"/></clipPath><clipPath id="037cd1a0d5"><path d="M 36.050781 0.0234375 L 10.070312 0.0234375 C 4.90625 0.0234375 0.699219 4.222656 0.699219 9.394531 C 0.699219 14.566406 4.898438 18.765625 10.070312 18.765625 L 36.050781 18.765625 C 41.210938 18.765625 45.417969 14.566406 45.417969 9.394531 C 45.417969 4.222656 41.210938 0.0234375 36.050781 0.0234375 " clip-rule="nonzero"/></clipPath><clipPath id="72ae9d9f1c"><rect x="0" width="46" y="0" height="19"/></clipPath><clipPath id="1a4b3f03a4"><path d="M 159.707031 156.289062 L 194.917969 156.289062 L 194.917969 204 L 159.707031 204 Z M 159.707031 156.289062 " clip-rule="nonzero"/></clipPath><clipPath id="2228c2bed6"><path d="M 193.613281 189.457031 L 177.21875 161.066406 C 175.96875 158.894531 173.945312 157.34375 171.535156 156.699219 C 169.121094 156.050781 166.585938 156.378906 164.425781 157.632812 C 159.957031 160.214844 158.414062 165.957031 160.996094 170.425781 L 177.386719 198.816406 C 178.640625 200.988281 180.660156 202.539062 183.074219 203.1875 C 183.878906 203.402344 184.703125 203.503906 185.515625 203.503906 C 187.140625 203.503906 188.742188 203.082031 190.183594 202.242188 C 192.351562 200.988281 193.902344 198.96875 194.550781 196.554688 C 195.195312 194.140625 194.867188 191.609375 193.613281 189.449219 " clip-rule="nonzero"/></clipPath><clipPath id="be18174701"><path d="M 0.707031 0.289062 L 35.917969 0.289062 L 35.917969 47.519531 L 0.707031 47.519531 Z M 0.707031 0.289062 " clip-rule="nonzero"/></clipPath><clipPath id="eaa9246466"><path d="M 34.613281 33.457031 L 18.21875 5.066406 C 16.96875 2.894531 14.945312 1.34375 12.535156 0.699219 C 10.121094 0.0507812 7.585938 0.378906 5.425781 1.632812 C 0.957031 4.214844 -0.585938 9.957031 1.996094 14.425781 L 18.386719 42.816406 C 19.640625 44.988281 21.660156 46.539062 24.074219 47.1875 C 24.878906 47.402344 25.703125 47.503906 26.515625 47.503906 C 28.140625 47.503906 29.742188 47.082031 31.183594 46.242188 C 33.351562 44.988281 34.902344 42.96875 35.550781 40.554688 C 36.195312 38.140625 35.867188 35.609375 34.613281 33.449219 " clip-rule="nonzero"/></clipPath><clipPath id="f26de6b563"><rect x="0" width="36" y="0" height="48"/></clipPath><clipPath id="111aa3bb02"><path d="M 144.429688 127.71875 L 202 127.71875 L 202 175.554688 L 144.429688 175.554688 Z M 144.429688 127.71875 " clip-rule="nonzero"/></clipPath><clipPath id="763ad50a9c"><path d="M 178.015625 127.996094 L 154.140625 127.996094 C 148.976562 127.996094 144.769531 132.195312 144.769531 137.367188 C 144.769531 142.539062 148.96875 146.738281 154.140625 146.738281 L 178.015625 146.738281 C 180.679688 146.738281 182.839844 148.90625 182.839844 151.5625 C 182.839844 154.21875 180.671875 156.390625 178.015625 156.390625 L 169.101562 156.390625 C 163.929688 156.390625 159.730469 160.585938 159.730469 165.757812 C 159.730469 170.929688 163.929688 175.128906 169.101562 175.128906 L 178.003906 175.128906 C 190.996094 175.128906 201.574219 164.5625 201.574219 151.5625 C 201.574219 138.5625 191.003906 127.996094 178.003906 127.996094 " clip-rule="nonzero"/></clipPath><clipPath id="3b44691fd5"><path d="M 0.71875 0.921875 L 57.601562 0.921875 L 57.601562 48.199219 L 0.71875 48.199219 Z M 0.71875 0.921875 " clip-rule="nonzero"/></clipPath><clipPath id="f93e3be7f7"><path d="M 34.015625 0.996094 L 10.140625 0.996094 C 4.976562 0.996094 0.769531 5.195312 0.769531 10.367188 C 0.769531 15.539062 4.96875 19.738281 10.140625 19.738281 L 34.015625 19.738281 C 36.679688 19.738281 38.839844 21.90625 38.839844 24.5625 C 38.839844 27.21875 36.671875 29.390625 34.015625 29.390625 L 25.101562 29.390625 C 19.929688 29.390625 15.730469 33.585938 15.730469 38.757812 C 15.730469 43.929688 19.929688 48.128906 25.101562 48.128906 L 34.003906 48.128906 C 46.996094 48.128906 57.574219 37.5625 57.574219 24.5625 C 57.574219 11.5625 47.003906 0.996094 34.003906 0.996094 " clip-rule="nonzero"/></clipPath><clipPath id="46101c6cf8"><rect x="0" width="58" y="0" height="49"/></clipPath></defs><g clip-path="url(#97b3048bf9)"><g clip-path="url(#454b9c065e)"><g transform="matrix(1, 0, 0, 1, 90, 223)"><g clip-path="url(#c01d93ebb7)"><g clip-path="url(#016e727e76)"><g clip-path="url(#7b30dab3bd)"><rect x="-172.5" width="540" fill="#ffffff" height="539.999987" y="-305.499998" fill-opacity="1"/></g></g></g></g></g></g><g clip-path="url(#422b81c5f8)"><g clip-path="url(#d84b6776c1)"><g transform="matrix(1, 0, 0, 1, 129, 223)"><g clip-path="url(#2df457b252)"><g clip-path="url(#ec1bf284b8)"><g clip-path="url(#1d5060e0b9)"><rect x="-211.5" width="540" fill="#ffffff" height="539.999987" y="-305.499998" fill-opacity="1"/></g></g></g></g></g></g><g clip-path="url(#84c6023870)"><g clip-path="url(#2847447587)"><g transform="matrix(1, 0, 0, 1, 129, 279)"><g clip-path="url(#5d2a43cdbf)"><g clip-path="url(#43d3ad39ef)"><g clip-path="url(#839871ffaf)"><rect x="-211.5" width="540" fill="#ffffff" height="539.999987" y="-361.499998" fill-opacity="1"/></g></g></g></g></g></g><g clip-path="url(#c47b915619)"><g clip-path="url(#db3df751c7)"><g transform="matrix(1, 0, 0, 1, 142, 223)"><g clip-path="url(#7f3913d612)"><g clip-path="url(#e76563f00b)"><g clip-path="url(#fc3f6fa6f3)"><rect x="-224.5" width="540" fill="#ffffff" height="539.999987" y="-305.499998" fill-opacity="1"/></g></g></g></g></g></g><g clip-path="url(#9b646c4fb0)"><g clip-path="url(#f58ae7415c)"><g transform="matrix(1, 0, 0, 1, 142, 292)"><g clip-path="url(#5411fe2567)"><g clip-path="url(#bfa3b1b40d)"><g clip-path="url(#7c1a78cce3)"><rect x="-224.5" width="540" fill="#ffffff" height="539.999987" y="-374.499998" fill-opacity="1"/></g></g></g></g></g></g><g clip-path="url(#801d7cbd86)"><g clip-path="url(#697638328f)"><g transform="matrix(1, 0, 0, 1, 104, 259)"><g clip-path="url(#5131d0055e)"><g clip-path="url(#02452e9541)"><g clip-path="url(#bf7146ab65)"><rect x="-186.5" width="540" fill="#ffffff" height="539.999987" y="-341.499998" fill-opacity="1"/></g></g></g></g></g></g><g clip-path="url(#f50ea1bd18)"><g clip-path="url(#17af796557)"><g transform="matrix(1, 0, 0, 1, 90, 279)"><g clip-path="url(#913b728243)"><g clip-path="url(#f35af950cb)"><g clip-path="url(#28ce451727)"><rect x="-172.5" width="540" fill="#ffffff" height="539.999987" y="-361.499998" fill-opacity="1"/></g></g></g></g></g></g><g clip-path="url(#122d3ccceb)"><g clip-path="url(#76221a539c)"><g transform="matrix(1, 0, 0, 1, 129, 279)"><g clip-path="url(#13175d3911)"><g clip-path="url(#d3d12e704e)"><g clip-path="url(#2d4c226c2d)"><rect x="-211.5" width="540" fill="#ffffff" height="539.999987" y="-361.499998" fill-opacity="1"/></g></g></g></g></g></g><g clip-path="url(#15dda461e0)"><g clip-path="url(#88a1183c7a)"><g transform="matrix(1, 0, 0, 1, 104, 266)"><g clip-path="url(#c858c345a8)"><g clip-path="url(#785da208e5)"><g clip-path="url(#2f8c1b5cc5)"><rect x="-186.5" width="540" fill="#ffffff" height="539.999987" y="-348.499998" fill-opacity="1"/></g></g></g></g></g></g><g clip-path="url(#fa09ca8999)"><g clip-path="url(#85da27887c)"><g transform="matrix(1, 0, 0, 1, 142, 266)"><g clip-path="url(#c1fbe3f607)"><g clip-path="url(#dc06ced39b)"><g clip-path="url(#99265c1d1e)"><rect x="-224.5" width="540" fill="#ffffff" height="539.999987" y="-348.499998" fill-opacity="1"/></g></g></g></g></g></g><g clip-path="url(#913fb0f619)"><g clip-path="url(#11017cf4eb)"><g transform="matrix(1, 0, 0, 1, 163, 266)"><g clip-path="url(#db8f9c0ea2)"><g clip-path="url(#da2464377c)"><g clip-path="url(#1ab59512b2)"><rect x="-245.5" width="540" fill="#ffffff" height="539.999987" y="-348.499998" fill-opacity="1"/></g></g></g></g></g></g><g clip-path="url(#cc1051a130)"><g clip-path="url(#a4e86e4773)"><g transform="matrix(1, 0, 0, 1, 104, 223)"><g clip-path="url(#1382ba8ee5)"><g clip-path="url(#af7331c85f)"><g clip-path="url(#bd05576aea)"><rect x="-186.5" width="540" fill="#ffffff" height="539.999987" y="-305.499998" fill-opacity="1"/></g></g></g></g></g></g><g clip-path="url(#91ac025550)"><g clip-path="url(#5ac161b4bd)"><g transform="matrix(1, 0, 0, 1, 156, 306)"><g clip-path="url(#68cdcfc1f5)"><g clip-path="url(#fe48ed3971)"><g clip-path="url(#b6d7e5670a)"><rect x="-238.5" width="540" fill="#ffffff" height="539.999987" y="-388.499998" fill-opacity="1"/></g></g></g></g></g></g><g clip-path="url(#964f2391c2)"><g clip-path="url(#ec7d6e2525)"><g transform="matrix(1, 0, 0, 1, 213, 223)"><g clip-path="url(#361eb59215)"><g clip-path="url(#e653752386)"><g clip-path="url(#9fdf397e70)"><rect x="-295.5" width="540" fill="#ffffff" height="539.999987" y="-305.499998" fill-opacity="1"/></g></g></g></g></g></g><g clip-path="url(#d7254a01a0)"><g clip-path="url(#827db8ced0)"><g transform="matrix(1, 0, 0, 1, 176, 227)"><g clip-path="url(#971a18f406)"><g clip-path="url(#d0dafa1e99)"><g clip-path="url(#8198696c11)"><rect x="-258.5" width="540" fill="#ffffff" height="539.999987" y="-309.499998" fill-opacity="1"/></g></g></g></g></g></g><g clip-path="url(#b5fbee605c)"><g clip-path="url(#442a12a99a)"><g transform="matrix(1, 0, 0, 1, 176, 221)"><g clip-path="url(#ddcc03e1ca)"><g clip-path="url(#896979194e)"><g clip-path="url(#5ff003a82c)"><rect x="-258.5" width="540" fill="#ffffff" height="539.999987" y="-303.499998" fill-opacity="1"/></g></g></g></g></g></g><g clip-path="url(#749254fe6d)"><g clip-path="url(#d92088f4f3)"><g transform="matrix(1, 0, 0, 1, 188, 234)"><g clip-path="url(#48a4a21b1f)"><g clip-path="url(#4896445849)"><g clip-path="url(#73b2559708)"><rect x="-270.5" width="540" fill="#ffffff" height="539.999987" y="-316.499998" fill-opacity="1"/></g></g></g></g></g></g><g clip-path="url(#52d6b25c1a)"><g clip-path="url(#f23abff6b7)"><g transform="matrix(1, 0, 0, 1, 226, 221)"><g clip-path="url(#161ed3ba3c)"><g clip-path="url(#253b16c1c7)"><g clip-path="url(#666e3e67ff)"><rect x="-308.5" width="540" fill="#ffffff" height="539.999987" y="-303.499998" fill-opacity="1"/></g></g></g></g></g></g><g clip-path="url(#ebaa445f85)"><g clip-path="url(#ca78c43234)"><g transform="matrix(1, 0, 0, 1, 205, 126)"><g clip-path="url(#cce19b2767)"><g clip-path="url(#5027395971)"><g clip-path="url(#dbb929abb1)"><rect x="-287.5" width="540" fill="#ffffff" height="539.999987" y="-208.499998" fill-opacity="1"/></g></g></g></g></g></g><g clip-path="url(#633031cf3c)"><g clip-path="url(#5dcb0219eb)"><g transform="matrix(1, 0, 0, 1, 262, 45)"><g clip-path="url(#ff811e6bbb)"><g clip-path="url(#ff8c937ad2)"><g clip-path="url(#c9a84f497c)"><rect x="-344.5" width="540" fill="#ffffff" height="539.999987" y="-127.499998" fill-opacity="1"/></g></g></g></g></g></g><g clip-path="url(#64e726ab69)"><g clip-path="url(#047e42c3bb)"><g transform="matrix(1, 0, 0, 1, 217, 83)"><g clip-path="url(#d6eb298ff8)"><g clip-path="url(#170156c54e)"><g clip-path="url(#74cd5a86bd)"><rect x="-299.5" width="540" fill="#ffffff" height="539.999987" y="-165.499998" fill-opacity="1"/></g></g></g></g></g></g><g clip-path="url(#2b338be7bf)"><g clip-path="url(#019d867852)"><g transform="matrix(1, 0, 0, 1, 217, 45)"><g clip-path="url(#ec53b3e9fc)"><g clip-path="url(#991a978db6)"><g clip-path="url(#69824d040c)"><rect x="-299.5" width="540" fill="#ffffff" height="539.999987" y="-127.499998" fill-opacity="1"/></g></g></g></g></g></g><g clip-path="url(#ddb9f9cfef)"><g clip-path="url(#f6cf2ac378)"><g transform="matrix(1, 0, 0, 1, 169, 101)"><g clip-path="url(#dc7f482baf)"><g clip-path="url(#6b28f7a364)"><g clip-path="url(#4473bb2858)"><rect x="-251.5" width="540" fill="#ffffff" height="539.999987" y="-183.499998" fill-opacity="1"/></g></g></g></g></g></g><g clip-path="url(#6f3352205e)"><g clip-path="url(#efad56ddc2)"><g transform="matrix(1, 0, 0, 1, 169, 73)"><g clip-path="url(#06f4591382)"><g clip-path="url(#8db37e0df5)"><g clip-path="url(#1e5905da72)"><rect x="-251.5" width="540" fill="#ffffff" height="539.999987" y="-155.499998" fill-opacity="1"/></g></g></g></g></g></g><g clip-path="url(#73a73778fe)"><g clip-path="url(#0c15be9ee3)"><g transform="matrix(1, 0, 0, 1, 169, 45)"><g clip-path="url(#4254264da3)"><g clip-path="url(#cfefe56caa)"><g clip-path="url(#2d2aab6250)"><rect x="-251.5" width="540" fill="#ffffff" height="539.999987" y="-127.499998" fill-opacity="1"/></g></g></g></g></g></g><g clip-path="url(#6ea18fc4bd)"><g clip-path="url(#89ef23f5e7)"><g transform="matrix(1, 0, 0, 1, 169, 73)"><g clip-path="url(#10410f5663)"><g clip-path="url(#cc3dea9b4f)"><g clip-path="url(#a0b802bdb3)"><rect x="-251.5" width="540" fill="#ffffff" height="539.999987" y="-155.499998" fill-opacity="1"/></g></g></g></g></g></g><g clip-path="url(#8f1f9f3be7)"><g clip-path="url(#289a0f04ee)"><g transform="matrix(1, 0, 0, 1, 91, 44)"><g clip-path="url(#b8b32bf495)"><g clip-path="url(#17b4a45e02)"><g clip-path="url(#8888558839)"><rect x="-173.5" width="540" fill="#ffffff" height="539.999987" y="-126.499998" fill-opacity="1"/></g></g></g></g></g></g><g clip-path="url(#e693fd3d9c)"><g clip-path="url(#4a497f4d06)"><g transform="matrix(1, 0, 0, 1, 120, 128)"><g clip-path="url(#a21ffdf6e8)"><g clip-path="url(#0e4f41212f)"><g clip-path="url(#7e0726f39b)"><rect x="-202.5" width="540" fill="#ffffff" height="539.999987" y="-210.499998" fill-opacity="1"/></g></g></g></g></g></g><g clip-path="url(#416f5e7aee)"><g clip-path="url(#362a91647c)"><g transform="matrix(1, 0, 0, 1, 94, 128)"><g clip-path="url(#72ae9d9f1c)"><g clip-path="url(#8c6f901049)"><g clip-path="url(#037cd1a0d5)"><rect x="-176.5" width="540" fill="#ffffff" height="539.999987" y="-210.499998" fill-opacity="1"/></g></g></g></g></g></g><g clip-path="url(#1a4b3f03a4)"><g clip-path="url(#2228c2bed6)"><g transform="matrix(1, 0, 0, 1, 159, 156)"><g clip-path="url(#f26de6b563)"><g clip-path="url(#be18174701)"><g clip-path="url(#eaa9246466)"><rect x="-241.5" width="540" fill="#ffffff" height="539.999987" y="-238.499998" fill-opacity="1"/></g></g></g></g></g></g><g clip-path="url(#111aa3bb02)"><g clip-path="url(#763ad50a9c)"><g transform="matrix(1, 0, 0, 1, 144, 127)"><g clip-path="url(#46101c6cf8)"><g clip-path="url(#3b44691fd5)"><g clip-path="url(#f93e3be7f7)"><rect x="-226.5" width="540" fill="#ffffff" height="539.999987" y="-209.499998" fill-opacity="1"/></g></g></g></g></g></g></svg>