<svg width="121" height="54" viewBox="0 0 121 54" fill="none" xmlns="http://www.w3.org/2000/svg">
<path d="M16.7871 0.946507L16.4588 2.74441C16.4204 2.95764 16.2272 3.13099 16.0139 3.13099H12.0914C11.1832 3.13099 10.7966 3.44087 10.6233 4.44567L10.3134 6.18528H15.319C15.5123 6.18528 15.6289 6.32027 15.6289 6.49516V6.57186L15.319 8.40811C15.2806 8.62135 15.0674 8.79469 14.8557 8.79469H9.85012L8.86526 14.4385C8.82691 14.6517 8.61368 14.825 8.40198 14.825H5.88921C5.69592 14.825 5.57933 14.69 5.57933 14.5152V14.4385L7.33735 4.4472C7.97551 0.791568 10.1017 0.289935 12.7679 0.289935C14.8557 0.289935 15.8022 0.463282 16.4588 0.559927C16.6904 0.598278 16.807 0.676515 16.807 0.849862C16.807 0.869805 16.7871 0.908156 16.7871 0.946507Z" fill="white"/>
<path d="M25.8717 4.0775C26.3166 4.19409 26.4316 4.27079 26.3749 4.65737L24.6736 14.4369C24.6353 14.6502 24.5386 14.8235 24.2287 14.8235H22.2575C22.0443 14.8235 21.8909 14.6885 21.9292 14.4369L22.0059 13.877C20.9628 14.6885 20.0347 14.9984 19.0099 14.9984C16.6904 14.9984 15.7623 13.2204 15.7623 11.2875C15.7623 10.9209 15.8007 10.5727 15.859 10.2045C15.859 10.2045 16.1106 8.75481 16.1689 8.38817C16.7487 5.02554 18.8366 3.59581 21.8694 3.59581C23.1841 3.59581 24.6138 3.75075 25.8702 4.07903L25.8717 4.0775ZM21.4659 6.16534C20.093 6.16534 19.533 6.97685 19.263 8.54311L18.9148 10.5727C18.8765 10.7859 18.8565 10.9976 18.8565 11.2108C18.8565 11.849 19.0882 12.389 19.958 12.389C20.6145 12.389 21.3693 12.0791 22.0059 11.7125L22.9524 6.28192C22.6042 6.22363 22.0059 6.16534 21.4644 6.16534H21.4659Z" fill="white"/>
<path d="M35.0699 3.88421C35.4181 3.98085 35.4365 4.0775 35.3981 4.32908L35.0883 6.04875C35.0499 6.26198 35.0116 6.41539 34.625 6.37703C33.8902 6.30033 33.3885 6.24204 32.2871 6.24204C31.3406 6.24204 30.6441 6.68691 30.3158 8.48328L30.0259 10.1063C29.9676 10.4729 29.9293 10.7828 29.9293 11.0344C29.9293 12.0776 30.4125 12.3491 31.224 12.3491C32.3254 12.3491 32.867 12.2908 33.6018 12.2141C33.8917 12.1757 33.9883 12.3307 33.95 12.5424L33.6401 14.262C33.5818 14.552 33.4668 14.6287 33.1569 14.7069C32.597 14.8419 31.7456 14.9968 30.5874 14.9968C28.3262 14.9968 26.7799 13.6438 26.7799 11.2476C26.7799 10.881 26.8182 10.5128 26.8964 10.1078L27.1864 8.48482C27.8245 4.8706 29.7375 3.59581 32.5402 3.59581C33.7 3.59581 34.5498 3.75075 35.0714 3.88574L35.0699 3.88421Z" fill="white"/>
<path d="M46.5108 4.15573L44.6945 14.4369C44.6561 14.6502 44.4628 14.8235 44.2496 14.8235H42.0851C41.8918 14.8235 41.7568 14.6885 41.7568 14.5136V14.4369L41.8534 13.9736C40.9453 14.5734 40.1138 14.9984 38.7807 14.9984C36.8678 14.9984 35.7663 13.8003 35.7663 11.7707C35.7663 11.4041 35.8047 11.0175 35.8829 10.5926L37.0043 4.15727C37.0426 3.94404 37.2743 3.75075 37.4875 3.75075H39.8254C40.0187 3.75075 40.1353 3.90568 40.1353 4.07903V4.15573L39.0139 10.5911C38.9556 10.9193 38.9172 11.2476 38.9172 11.4793C38.9172 12.1358 39.2072 12.4074 40.1153 12.4074C40.5019 12.4074 41.4484 12.1174 42.0482 11.7692L43.3813 4.1542C43.4197 3.94097 43.6329 3.74768 43.8446 3.74768H46.1825C46.3758 3.74768 46.5108 3.90262 46.5108 4.09591V4.15573Z" fill="white"/>
<path d="M52.2512 0.38658L49.7768 14.417C49.7384 14.6302 49.5451 14.8235 49.3319 14.8235H46.9741C46.7808 14.8235 46.6458 14.6686 46.6458 14.4753V14.417L49.1202 0.38658C49.1585 0.173347 49.3718 0 49.5835 0H51.9413C52.1346 0 52.2512 0.134996 52.2512 0.309878V0.38658Z" fill="white"/>
<path d="M63.0355 0C63.3055 0 63.4421 0.096645 63.3838 0.38658L60.9876 13.9338C60.9293 14.2436 60.8326 14.3786 60.2927 14.4937C59.1329 14.7637 57.5866 14.9968 56.0986 14.9968C53.5091 14.9968 52.0594 13.3539 52.0594 11.0543C52.0594 10.7261 52.0794 10.3978 52.1361 10.0495L52.3877 8.54158C52.9875 4.98565 54.7455 3.59427 58.1082 3.59427C58.4948 3.59427 59.1329 3.65257 59.6729 3.72927L60.2727 0.38658C60.3111 0.173347 60.4461 0 60.7176 0H63.0371H63.0355ZM57.6633 6.18374C56.252 6.18374 55.7688 6.9569 55.4988 8.54158L55.2472 10.0495C55.1889 10.4361 55.1505 10.7844 55.1505 11.0743C55.1505 11.9625 55.4988 12.4273 56.5619 12.4273C57.2 12.4273 57.7799 12.369 58.1665 12.3107L59.2296 6.28039C58.7847 6.2221 58.1281 6.18374 57.6648 6.18374H57.6633Z" fill="white"/>
<path d="M73.1234 4.0775C73.5683 4.19409 73.6834 4.27079 73.6266 4.65737L71.9253 14.4369C71.887 14.6502 71.7903 14.8235 71.4805 14.8235H69.5092C69.296 14.8235 69.1426 14.6885 69.1809 14.4369L69.2576 13.877C68.2145 14.6885 67.2864 14.9984 66.2616 14.9984C63.9422 14.9984 63.0141 13.2204 63.0141 11.2875C63.0141 10.9209 63.0524 10.5727 63.1107 10.2045C63.1107 10.2045 63.3623 8.75481 63.4206 8.38817C64.0005 5.02554 66.0883 3.59581 69.1211 3.59581C70.4358 3.59581 71.8655 3.75075 73.1219 4.07903L73.1234 4.0775ZM68.7176 6.16534C67.3447 6.16534 66.7847 6.97685 66.5148 8.54311L66.1665 10.5727C66.1282 10.7859 66.1082 10.9976 66.1082 11.2108C66.1082 11.849 66.3399 12.389 67.2097 12.389C67.8662 12.389 68.621 12.0791 69.2576 11.7125L70.2041 6.28192C69.8559 6.22363 69.2576 6.16534 68.7161 6.16534H68.7176Z" fill="white"/>
<path d="M85.0077 0C85.2777 0 85.4142 0.096645 85.3559 0.38658L82.9597 13.9338C82.9014 14.2436 82.8048 14.3786 82.2648 14.4937C81.1051 14.7637 79.5588 14.9968 78.0707 14.9968C75.4813 14.9968 74.0316 13.3539 74.0316 11.0543C74.0316 10.7261 74.0515 10.3978 74.1083 10.0495L74.3599 8.54158C74.9597 4.98565 76.7177 3.59427 80.0803 3.59427C80.4669 3.59427 81.1051 3.65257 81.6451 3.72927L82.2449 0.38658C82.2832 0.173347 82.4182 0 82.6897 0H85.0092H85.0077ZM79.6355 6.18374C78.2241 6.18374 77.7409 6.9569 77.4709 8.54158L77.2193 10.0495C77.161 10.4361 77.1227 10.7844 77.1227 11.0743C77.1227 11.9625 77.4709 12.4273 78.534 12.4273C79.1722 12.4273 79.752 12.369 80.1386 12.3107L81.2017 6.28039C80.7569 6.2221 80.1003 6.18374 79.637 6.18374H79.6355Z" fill="white"/>
<path d="M95.1922 8.67657L94.9989 9.79796C94.9407 10.0879 94.7673 10.2612 94.5157 10.2612H88.312C88.2737 10.5512 88.2353 10.8212 88.2353 11.0528C88.2353 12.0576 88.7186 12.4058 89.955 12.4058C91.1914 12.4058 92.9111 12.2893 93.7042 12.2325C94.0141 12.2126 94.1107 12.2708 94.0708 12.5424L93.8008 14.0105C93.7426 14.3203 93.6659 14.4553 93.3176 14.532C92.0229 14.8419 90.9398 14.9953 89.2585 14.9953C87.1707 14.9953 85.1995 13.7972 85.1995 11.1111C85.1995 10.7828 85.2378 10.4146 85.2961 10.0281L85.5277 8.67504C86.1076 5.31241 88.1372 3.59274 91.3065 3.59274C93.9159 3.59274 95.2873 5.3707 95.2873 7.63189C95.2873 7.96017 95.249 8.32834 95.1907 8.67504L95.1922 8.67657ZM90.8632 6.10551C89.5485 6.10551 88.9303 6.99526 88.6403 8.32834H92.2729C92.3312 8.01847 92.3696 7.72853 92.3696 7.47848C92.3696 6.59027 91.9447 6.10704 90.8616 6.10704L90.8632 6.10551Z" fill="white"/>
<path d="M25.3793 23.7286L24.4527 28.9981C24.3683 29.4629 24.0309 29.7989 23.5676 29.7989H23.4832C21.7973 29.6731 17.0325 29.2512 13.9966 29.2512C12.817 29.2512 11.5943 29.6301 11.5943 31.0215C11.5943 31.6121 12.0162 31.991 13.449 32.8347L18.5927 35.8706C21.6285 37.6409 22.8082 39.9604 22.8082 42.9119C22.8082 50.7954 16.1888 54 9.02173 54C5.56399 54 2.86713 53.5352 0.7164 52.9032C0.33749 52.7774 0 52.5657 0 52.1868V52.0594L0.885145 46.8743C0.969518 46.4111 1.34843 46.0322 1.85466 46.0322H1.93904C3.66791 46.2009 8.13659 46.6642 10.3717 46.6642C12.0576 46.6642 13.449 46.0736 13.449 44.1775C13.449 43.5439 13.0271 43.0806 11.8045 42.2799L6.3663 38.6963C3.92102 37.0948 2.73981 34.3535 2.73981 31.7394C2.73981 24.1505 8.68424 21.874 15.388 21.874C18.7184 21.874 23.1043 22.4216 24.7473 22.9279C25.0847 23.0537 25.3793 23.2224 25.3793 23.6029V23.7302V23.7286Z" fill="white"/>
<path d="M49.3273 23.2239L48.4422 28.3676C48.3578 28.8309 47.8945 29.2098 47.4297 29.2098H38.9142C37.3955 29.2098 36.8064 29.716 36.5119 31.3176L35.9642 34.3949H46.3359C46.7578 34.3949 47.0523 34.6894 47.0523 35.1113V35.2371L46.1672 40.212C46.0828 40.6753 45.6609 41.0542 45.1976 41.0542H34.8259L34.1939 44.5533C34.151 44.8908 34.1095 45.1439 34.1095 45.3971C34.1095 46.3666 34.6158 46.6611 35.8384 46.6611H44.3539C44.7758 46.6611 45.0703 46.9557 45.0703 47.3791V47.5048L44.1422 52.6485C44.0578 53.1547 43.7203 53.4079 43.1727 53.4922C41.5282 53.7024 38.9571 53.9985 34.8674 53.9985C29.9339 53.9985 25.4238 52.2282 25.4238 46.7041C25.4238 46.0291 25.5081 45.3127 25.6339 44.5533L27.9519 31.316C29.4276 22.799 34.4869 21.8724 40.4314 21.8724C44.5211 21.8724 47.0922 22.167 48.6523 22.3787C49.1156 22.4216 49.3273 22.6318 49.3273 23.0537V23.2239Z" fill="white"/>
<path d="M79.2197 23.138L74.1604 52.0594C73.9917 52.9032 73.148 53.6196 72.3058 53.6196H67.0778C66.3184 53.6196 65.8551 53.2821 65.5176 52.4813L59.2787 38.3573C59.1513 38.0628 59.0255 38.0198 58.8997 38.0198C58.7739 38.0198 58.6896 38.1042 58.6466 38.3987L56.117 52.7758C56.0326 53.2391 55.5693 53.618 55.1045 53.618H48.7812C48.3593 53.618 48.0648 53.3235 48.0648 52.9016V52.7758L53.1241 23.8529C53.2928 23.0092 54.1365 22.2928 54.9787 22.2928H60.1224C60.9231 22.2928 61.2606 22.799 61.5981 23.5154L68.0059 38.0612C68.1332 38.3558 68.1746 38.4402 68.3004 38.4402C68.4262 38.4402 68.5535 38.3972 68.5949 38.0612L71.2089 23.1365C71.2933 22.6732 71.7566 22.2928 72.2214 22.2928H78.5448C78.9666 22.2928 79.2197 22.5873 79.2197 22.9678V23.138Z" fill="white"/>
<path d="M96.0436 53.6211C95.6218 53.6211 95.3272 53.2422 95.3272 52.8203L95.2014 46.9603H87.6969L85.4633 52.8203C85.2946 53.2422 84.9156 53.6211 84.4938 53.6211H77.0322C76.6533 53.6211 76.4416 53.4109 76.4416 53.0734C76.4416 52.9891 76.483 52.8617 76.5259 52.7359L86.7289 26.9348C88.3734 22.7607 91.7038 21.9185 95.7092 21.9185C99.7146 21.9185 102.749 22.7607 102.918 26.9348L104.015 52.7359V52.7789C104.015 53.2422 103.677 53.6211 103.214 53.6211H96.0436ZM94.9882 29.5059C94.9882 29.127 94.9882 28.9153 94.6093 28.9153C94.2304 28.9153 94.1874 29.1254 94.0601 29.5059L90.0961 40.215H95.1554L94.9867 29.5059H94.9882Z" fill="white"/>
<path d="M120.547 23.0966C120.631 22.549 120.294 22.2958 119.831 22.2958H112.917C112.453 22.2958 112.031 22.6318 111.947 23.0966L110.629 30.5797L120.004 26.1862L120.549 23.0951L120.547 23.0966Z" fill="white"/>
<path d="M110.037 33.9331L106.718 52.7774C106.633 53.1992 106.886 53.6211 107.393 53.6211H114.306C114.938 53.6211 115.235 53.2422 115.319 52.7774L119.412 29.5396L110.037 33.9331Z" fill="white"/>
</svg>
